%TF.GenerationSoftware,KiCad,Pcbnew,9.0.6*%
%TF.CreationDate,2026-01-14T11:03:19+01:00*%
%TF.ProjectId,eurocard mux,6575726f-6361-4726-9420-6d75782e6b69,1.0.2*%
%TF.SameCoordinates,Original*%
%TF.FileFunction,Copper,L2,Bot*%
%TF.FilePolarity,Positive*%
%FSLAX46Y46*%
G04 Gerber Fmt 4.6, Leading zero omitted, Abs format (unit mm)*
G04 Created by KiCad (PCBNEW 9.0.6) date 2026-01-14 11:03:19*
%MOMM*%
%LPD*%
G01*
G04 APERTURE LIST*
G04 Aperture macros list*
%AMRoundRect*
0 Rectangle with rounded corners*
0 $1 Rounding radius*
0 $2 $3 $4 $5 $6 $7 $8 $9 X,Y pos of 4 corners*
0 Add a 4 corners polygon primitive as box body*
4,1,4,$2,$3,$4,$5,$6,$7,$8,$9,$2,$3,0*
0 Add four circle primitives for the rounded corners*
1,1,$1+$1,$2,$3*
1,1,$1+$1,$4,$5*
1,1,$1+$1,$6,$7*
1,1,$1+$1,$8,$9*
0 Add four rect primitives between the rounded corners*
20,1,$1+$1,$2,$3,$4,$5,0*
20,1,$1+$1,$4,$5,$6,$7,0*
20,1,$1+$1,$6,$7,$8,$9,0*
20,1,$1+$1,$8,$9,$2,$3,0*%
G04 Aperture macros list end*
%TA.AperFunction,ComponentPad*%
%ADD10RoundRect,0.250000X0.600000X0.600000X-0.600000X0.600000X-0.600000X-0.600000X0.600000X-0.600000X0*%
%TD*%
%TA.AperFunction,ComponentPad*%
%ADD11C,1.700000*%
%TD*%
%TA.AperFunction,ComponentPad*%
%ADD12C,0.800000*%
%TD*%
%TA.AperFunction,ComponentPad*%
%ADD13C,6.400000*%
%TD*%
%TA.AperFunction,ComponentPad*%
%ADD14RoundRect,0.249999X0.790001X1.550001X-0.790001X1.550001X-0.790001X-1.550001X0.790001X-1.550001X0*%
%TD*%
%TA.AperFunction,ComponentPad*%
%ADD15O,2.080000X3.600000*%
%TD*%
%TA.AperFunction,ComponentPad*%
%ADD16RoundRect,0.250000X-0.600000X-0.600000X0.600000X-0.600000X0.600000X0.600000X-0.600000X0.600000X0*%
%TD*%
%TA.AperFunction,ViaPad*%
%ADD17C,1.000000*%
%TD*%
%TA.AperFunction,Conductor*%
%ADD18C,2.000000*%
%TD*%
%TA.AperFunction,Conductor*%
%ADD19C,1.000000*%
%TD*%
%TA.AperFunction,Conductor*%
%ADD20C,0.500000*%
%TD*%
G04 APERTURE END LIST*
D10*
%TO.P,J3,1,Pin_1*%
%TO.N,GND*%
X63697500Y-121350000D03*
D11*
%TO.P,J3,2,Pin_2*%
X61157500Y-121350000D03*
%TO.P,J3,3,Pin_3*%
%TO.N,+12V*%
X63697500Y-118810000D03*
%TO.P,J3,4,Pin_4*%
X61157500Y-118810000D03*
%TO.P,J3,5,Pin_5*%
%TO.N,-VDC*%
X63697500Y-116270000D03*
%TO.P,J3,6,Pin_6*%
X61157500Y-116270000D03*
%TO.P,J3,7,Pin_7*%
X63697500Y-113730000D03*
%TO.P,J3,8,Pin_8*%
X61157500Y-113730000D03*
%TO.P,J3,9,Pin_9*%
%TO.N,+VDC*%
X63697500Y-111190000D03*
%TO.P,J3,10,Pin_10*%
X61157500Y-111190000D03*
%TO.P,J3,11,Pin_11*%
X63697500Y-108650000D03*
%TO.P,J3,12,Pin_12*%
X61157500Y-108650000D03*
%TD*%
D12*
%TO.P,H1,1,1*%
%TO.N,GND*%
X56100000Y-88500000D03*
X56802944Y-86802944D03*
X56802944Y-90197056D03*
X58500000Y-86100000D03*
D13*
X58500000Y-88500000D03*
D12*
X58500000Y-90900000D03*
X60197056Y-86802944D03*
X60197056Y-90197056D03*
X60900000Y-88500000D03*
%TD*%
D14*
%TO.P,J1,1,Pin_1*%
%TO.N,/10*%
X139860000Y-91777500D03*
D15*
%TO.P,J1,2,Pin_2*%
%TO.N,/9*%
X134780000Y-91777500D03*
%TO.P,J1,3,Pin_3*%
%TO.N,/8*%
X129700000Y-91777500D03*
%TO.P,J1,4,Pin_4*%
%TO.N,/7*%
X124620000Y-91777500D03*
%TO.P,J1,5,Pin_5*%
%TO.N,/6*%
X119540000Y-91777500D03*
%TO.P,J1,6,Pin_6*%
%TO.N,/5*%
X114460000Y-91777500D03*
%TO.P,J1,7,Pin_7*%
%TO.N,/4*%
X109380000Y-91777500D03*
%TO.P,J1,8,Pin_8*%
%TO.N,/3*%
X104300000Y-91777500D03*
%TO.P,J1,9,Pin_9*%
%TO.N,/2*%
X99220000Y-91777500D03*
%TO.P,J1,10,Pin_10*%
%TO.N,/1*%
X94140000Y-91777500D03*
%TD*%
D12*
%TO.P,H3,1,1*%
%TO.N,GND*%
X173100000Y-141500000D03*
X173802944Y-139802944D03*
X173802944Y-143197056D03*
X175500000Y-139100000D03*
D13*
X175500000Y-141500000D03*
D12*
X175500000Y-143900000D03*
X177197056Y-139802944D03*
X177197056Y-143197056D03*
X177900000Y-141500000D03*
%TD*%
%TO.P,H2,1,1*%
%TO.N,GND*%
X173100000Y-88500000D03*
X173802944Y-86802944D03*
X173802944Y-90197056D03*
X175500000Y-86100000D03*
D13*
X175500000Y-88500000D03*
D12*
X175500000Y-90900000D03*
X177197056Y-86802944D03*
X177197056Y-90197056D03*
X177900000Y-88500000D03*
%TD*%
%TO.P,H4,1,1*%
%TO.N,GND*%
X56100000Y-141500000D03*
X56802944Y-139802944D03*
X56802944Y-143197056D03*
X58500000Y-139100000D03*
D13*
X58500000Y-141500000D03*
D12*
X58500000Y-143900000D03*
X60197056Y-139802944D03*
X60197056Y-143197056D03*
X60900000Y-141500000D03*
%TD*%
D16*
%TO.P,J4,1,Pin_1*%
%TO.N,GND*%
X170302500Y-121350000D03*
D11*
%TO.P,J4,2,Pin_2*%
X172842500Y-121350000D03*
%TO.P,J4,3,Pin_3*%
%TO.N,+12V*%
X170302500Y-118810000D03*
%TO.P,J4,4,Pin_4*%
X172842500Y-118810000D03*
%TO.P,J4,5,Pin_5*%
%TO.N,-VDC*%
X170302500Y-116270000D03*
%TO.P,J4,6,Pin_6*%
X172842500Y-116270000D03*
%TO.P,J4,7,Pin_7*%
X170302500Y-113730000D03*
%TO.P,J4,8,Pin_8*%
X172842500Y-113730000D03*
%TO.P,J4,9,Pin_9*%
%TO.N,+VDC*%
X170302500Y-111190000D03*
%TO.P,J4,10,Pin_10*%
X172842500Y-111190000D03*
%TO.P,J4,11,Pin_11*%
X170302500Y-108650000D03*
%TO.P,J4,12,Pin_12*%
X172842500Y-108650000D03*
%TD*%
D14*
%TO.P,J2,1,Pin_1*%
%TO.N,/10A*%
X112000000Y-138222500D03*
D15*
%TO.P,J2,2,Pin_2*%
%TO.N,/9A*%
X106920000Y-138222500D03*
%TO.P,J2,3,Pin_3*%
%TO.N,/8A*%
X101840000Y-138222500D03*
%TO.P,J2,4,Pin_4*%
%TO.N,/7A*%
X96760000Y-138222500D03*
%TO.P,J2,5,Pin_5*%
%TO.N,/6A*%
X91680000Y-138222500D03*
%TO.P,J2,6,Pin_6*%
%TO.N,/5A*%
X86600000Y-138222500D03*
%TO.P,J2,7,Pin_7*%
%TO.N,/4A*%
X81520000Y-138222500D03*
%TO.P,J2,8,Pin_8*%
%TO.N,/3A*%
X76440000Y-138222500D03*
%TO.P,J2,9,Pin_9*%
%TO.N,/2A*%
X71360000Y-138222500D03*
%TO.P,J2,10,Pin_10*%
%TO.N,/1A*%
X66280000Y-138222500D03*
%TD*%
D14*
%TO.P,J5,1,Pin_1*%
%TO.N,/10B*%
X167720000Y-138222500D03*
D15*
%TO.P,J5,2,Pin_2*%
%TO.N,/9B*%
X162640000Y-138222500D03*
%TO.P,J5,3,Pin_3*%
%TO.N,/8B*%
X157560000Y-138222500D03*
%TO.P,J5,4,Pin_4*%
%TO.N,/7B*%
X152480000Y-138222500D03*
%TO.P,J5,5,Pin_5*%
%TO.N,/6B*%
X147400000Y-138222500D03*
%TO.P,J5,6,Pin_6*%
%TO.N,/5B*%
X142320000Y-138222500D03*
%TO.P,J5,7,Pin_7*%
%TO.N,/4B*%
X137240000Y-138222500D03*
%TO.P,J5,8,Pin_8*%
%TO.N,/3B*%
X132160000Y-138222500D03*
%TO.P,J5,9,Pin_9*%
%TO.N,/2B*%
X127080000Y-138222500D03*
%TO.P,J5,10,Pin_10*%
%TO.N,/1B*%
X122000000Y-138222500D03*
%TD*%
D17*
%TO.N,-VDC*%
X102000000Y-111000000D03*
X82000000Y-111000000D03*
X153000000Y-111000000D03*
X121000000Y-111000000D03*
X138000000Y-111000000D03*
%TO.N,+VDC*%
X147000000Y-111000000D03*
X132000000Y-111000000D03*
X115000000Y-111000000D03*
X76000000Y-111000000D03*
X96000000Y-111000000D03*
%TO.N,/8B*%
X139210683Y-122208473D03*
%TO.N,/1B*%
X73208970Y-120540131D03*
%TO.N,/10B*%
X152953156Y-122870684D03*
%TO.N,/5B*%
X113000000Y-121000000D03*
%TO.N,/9B*%
X147768104Y-123367894D03*
%TO.N,/6B*%
X123000000Y-121000000D03*
%TO.N,/7B*%
X132033419Y-123061315D03*
%TO.N,/4B*%
X105000000Y-121000000D03*
%TO.N,/2B*%
X84632105Y-120613710D03*
%TO.N,/3B*%
X93000000Y-121000000D03*
%TO.N,GND*%
X84367137Y-131948243D03*
X109806495Y-127186880D03*
X164000000Y-87000000D03*
X78767987Y-140324105D03*
X169305477Y-99561750D03*
X77865477Y-124961750D03*
X102005116Y-143240144D03*
X88025477Y-89401750D03*
X136188388Y-129149863D03*
X93105477Y-94481750D03*
X174385477Y-99561750D03*
X145108035Y-128440866D03*
X171005116Y-143240144D03*
X143905477Y-94481750D03*
X103940112Y-128696359D03*
X88274263Y-119326078D03*
X133745477Y-104641750D03*
X129151066Y-124348179D03*
X142005116Y-143240144D03*
X169305477Y-89401750D03*
X143905477Y-114801750D03*
X85243456Y-110824859D03*
X159145477Y-99561750D03*
X124142341Y-124451098D03*
X148985477Y-89401750D03*
X159145477Y-104641750D03*
X144000000Y-87000000D03*
X113425477Y-99561750D03*
X90060785Y-121903705D03*
X169305477Y-130041750D03*
X62625477Y-89401750D03*
X146594643Y-124758652D03*
X177000000Y-94000000D03*
X159145477Y-130041750D03*
X135017449Y-115154081D03*
X136211259Y-134890456D03*
X67705477Y-130041750D03*
X72785477Y-135121750D03*
X118505477Y-140201750D03*
X138825477Y-114801750D03*
X67705477Y-99561750D03*
X97000000Y-87000000D03*
X131202534Y-134684618D03*
X164225477Y-94481750D03*
X142111948Y-130362020D03*
X108000000Y-87000000D03*
X57545477Y-130041750D03*
X97000000Y-130000000D03*
X108345477Y-114801750D03*
X133164907Y-126337947D03*
X177000000Y-115000000D03*
X123585477Y-99561750D03*
X167905509Y-111538372D03*
X57545477Y-109721750D03*
X142000000Y-111000000D03*
X116839293Y-129554017D03*
X134022565Y-122770088D03*
X67705477Y-135121750D03*
X77865477Y-135121750D03*
X141334338Y-134730360D03*
X88025477Y-114801750D03*
X169305477Y-94481750D03*
X64000000Y-87000000D03*
X174385477Y-124961750D03*
X57545477Y-124961750D03*
X113425477Y-114801750D03*
X93105477Y-104641750D03*
X177000000Y-136000000D03*
X103265477Y-104641750D03*
X148985477Y-94481750D03*
X108345477Y-104641750D03*
X72785477Y-89401750D03*
X130000000Y-87000000D03*
X86000000Y-87000000D03*
X83725549Y-128216070D03*
X113425477Y-104641750D03*
X126000000Y-111000000D03*
X123585477Y-104641750D03*
X66718035Y-111185076D03*
X82945477Y-114801750D03*
X177000000Y-105000000D03*
X164225477Y-89401750D03*
X178000000Y-125000000D03*
X69005116Y-143240144D03*
X82005116Y-143240144D03*
X84016856Y-140461331D03*
X159005116Y-143240144D03*
X157000000Y-111000000D03*
X154065477Y-114801750D03*
X159145477Y-89401750D03*
X57545477Y-135121750D03*
X126107137Y-129484202D03*
X143905477Y-89401750D03*
X57545477Y-104641750D03*
X57545477Y-119881750D03*
X159145477Y-94481750D03*
X138825477Y-104641750D03*
X62625477Y-124961750D03*
X155000000Y-87000000D03*
X77865477Y-99561750D03*
X123585477Y-94481750D03*
X130955765Y-129438460D03*
X84229911Y-137231419D03*
X169000000Y-87000000D03*
X67705477Y-104641750D03*
X154065477Y-99561750D03*
X123585477Y-114801750D03*
X117005116Y-143240144D03*
X128665477Y-99561750D03*
X72785477Y-130041750D03*
X72785477Y-99561750D03*
X108345477Y-99561750D03*
X69024988Y-140358412D03*
X118000000Y-87000000D03*
X62625477Y-104641750D03*
X121193504Y-134837193D03*
X75000000Y-87000000D03*
X126578091Y-120677401D03*
X164225477Y-124961750D03*
X126236535Y-135008724D03*
X93105477Y-99561750D03*
X67705477Y-89401750D03*
X128665477Y-114801750D03*
X93105477Y-114801750D03*
X164225477Y-99561750D03*
X88025477Y-104641750D03*
X82945477Y-89401750D03*
X67705477Y-94481750D03*
X168420104Y-117147457D03*
X72785477Y-104641750D03*
X169305477Y-104641750D03*
X57545477Y-99561750D03*
X148985477Y-99561750D03*
X103265477Y-114801750D03*
X174385477Y-119881750D03*
X174385477Y-104641750D03*
X90000000Y-111000000D03*
X141334338Y-124621427D03*
X57545477Y-114801750D03*
X82945477Y-94481750D03*
X57545477Y-94481750D03*
X77865477Y-89401750D03*
X164225477Y-104641750D03*
X154065477Y-104641750D03*
X164225477Y-135121750D03*
X138681315Y-127091483D03*
X154065477Y-89401750D03*
X77865477Y-94481750D03*
X169305477Y-135121750D03*
X94205838Y-140392718D03*
X174385477Y-94481750D03*
X62625477Y-99561750D03*
X72785477Y-114801750D03*
X154065477Y-94481750D03*
X135943720Y-124073728D03*
X62625477Y-94481750D03*
X107000000Y-111000000D03*
X72785477Y-94481750D03*
%TO.N,+12V*%
X156727057Y-115413183D03*
%TD*%
D18*
%TO.N,-VDC*%
X170302500Y-115000000D02*
X170302500Y-116270000D01*
X167000000Y-115000000D02*
X170302500Y-115000000D01*
X165000000Y-113000000D02*
X167000000Y-115000000D01*
X172842500Y-113730000D02*
X170302500Y-113730000D01*
X61157500Y-116270000D02*
X61157500Y-113730000D01*
X170302500Y-116270000D02*
X172842500Y-116270000D01*
X63697500Y-113730000D02*
X67270000Y-113730000D01*
X61157500Y-113730000D02*
X63697500Y-113730000D01*
X63697500Y-113730000D02*
X63697500Y-115130000D01*
D19*
X82000000Y-111000000D02*
X82000000Y-113000000D01*
D18*
X63697500Y-115130000D02*
X63697500Y-116270000D01*
X63697500Y-116270000D02*
X61157500Y-116270000D01*
D19*
X121000000Y-111000000D02*
X121000000Y-113000000D01*
D18*
X82000000Y-113000000D02*
X165000000Y-113000000D01*
D19*
X153000000Y-113200000D02*
X153000000Y-111000000D01*
D18*
X170302500Y-113730000D02*
X170302500Y-115000000D01*
X68000000Y-113000000D02*
X82000000Y-113000000D01*
D19*
X138000000Y-111000000D02*
X138000000Y-113000000D01*
D18*
X172842500Y-116270000D02*
X172842500Y-113730000D01*
D19*
X102000000Y-111000000D02*
X102000000Y-113000000D01*
D18*
X67270000Y-113730000D02*
X68000000Y-113000000D01*
%TO.N,+VDC*%
X172842500Y-111190000D02*
X170302500Y-111190000D01*
X61157500Y-111190000D02*
X63697500Y-111190000D01*
D19*
X132000000Y-111000000D02*
X132000000Y-109000000D01*
D18*
X63697500Y-111190000D02*
X63697500Y-110130000D01*
X63697500Y-110130000D02*
X64870000Y-110130000D01*
X66000000Y-109000000D02*
X76000000Y-109000000D01*
D19*
X115000000Y-111000000D02*
X115000000Y-109000000D01*
D18*
X76000000Y-109000000D02*
X147000000Y-109000000D01*
D19*
X96000000Y-111000000D02*
X96000000Y-109000000D01*
D18*
X170302500Y-110000000D02*
X169302500Y-109000000D01*
X61157500Y-111190000D02*
X61157500Y-108650000D01*
X64870000Y-110130000D02*
X66000000Y-109000000D01*
X63697500Y-108650000D02*
X64047500Y-109000000D01*
X63697500Y-108650000D02*
X61157500Y-108650000D01*
X170302500Y-110000000D02*
X170302500Y-111190000D01*
X165000000Y-109000000D02*
X147000000Y-109000000D01*
D19*
X76000000Y-111000000D02*
X76000000Y-109000000D01*
D18*
X172842500Y-108650000D02*
X170302500Y-108650000D01*
X170302500Y-108650000D02*
X170302500Y-110000000D01*
X63697500Y-110130000D02*
X63697500Y-108650000D01*
D19*
X147000000Y-111000000D02*
X147000000Y-109000000D01*
D18*
X172842500Y-111190000D02*
X172842500Y-108650000D01*
X169302500Y-109000000D02*
X165000000Y-109000000D01*
X170302500Y-108650000D02*
X169952500Y-109000000D01*
D19*
%TO.N,/8B*%
X139235210Y-122233000D02*
X141570500Y-122233000D01*
X139210683Y-122208473D02*
X139235210Y-122233000D01*
X141570500Y-122233000D02*
X157560000Y-138222500D01*
%TO.N,/1B*%
X73000000Y-125000000D02*
X83000000Y-135000000D01*
X118777500Y-135000000D02*
X122000000Y-138222500D01*
X73208970Y-120540131D02*
X73000000Y-120749101D01*
X83000000Y-135000000D02*
X118777500Y-135000000D01*
X73000000Y-120749101D02*
X73000000Y-125000000D01*
%TO.N,/10B*%
X152953156Y-122870684D02*
X156870684Y-122870684D01*
X156870684Y-122870684D02*
X167720000Y-133720000D01*
X167720000Y-133720000D02*
X167720000Y-138222500D01*
%TO.N,/5B*%
X130097500Y-126000000D02*
X142320000Y-138222500D01*
X113000000Y-121000000D02*
X118000000Y-126000000D01*
X118000000Y-126000000D02*
X130097500Y-126000000D01*
%TO.N,/9B*%
X147768104Y-123367894D02*
X147785394Y-123367894D01*
X147785394Y-123367894D02*
X162640000Y-138222500D01*
%TO.N,/6B*%
X131665525Y-124998895D02*
X134176395Y-124998895D01*
X129666630Y-123000000D02*
X131665525Y-124998895D01*
X134176395Y-124998895D02*
X147400000Y-138222500D01*
X123000000Y-121000000D02*
X125000000Y-123000000D01*
X125000000Y-123000000D02*
X129666630Y-123000000D01*
%TO.N,/7B*%
X135257500Y-121000000D02*
X152480000Y-138222500D01*
X134094734Y-121000000D02*
X135257500Y-121000000D01*
X132033419Y-123061315D02*
X134094734Y-121000000D01*
%TO.N,/4B*%
X106000000Y-121000000D02*
X113000000Y-128000000D01*
X127017500Y-128000000D02*
X137240000Y-138222500D01*
X105000000Y-121000000D02*
X106000000Y-121000000D01*
X113000000Y-128000000D02*
X127017500Y-128000000D01*
%TO.N,/2B*%
X84632105Y-120613710D02*
X84632105Y-121232105D01*
X121857500Y-133000000D02*
X127080000Y-138222500D01*
X84632105Y-121232105D02*
X96400000Y-133000000D01*
X96400000Y-133000000D02*
X121857500Y-133000000D01*
%TO.N,/3B*%
X124937500Y-131000000D02*
X132160000Y-138222500D01*
X93000000Y-121000000D02*
X103000000Y-131000000D01*
X103000000Y-131000000D02*
X124937500Y-131000000D01*
%TO.N,GND*%
X167350000Y-121350000D02*
X172842500Y-121350000D01*
X165000000Y-119000000D02*
X167350000Y-121350000D01*
X61157500Y-121350000D02*
X63697500Y-121350000D01*
X63697500Y-121350000D02*
X63697500Y-121302500D01*
X66000000Y-119000000D02*
X165000000Y-119000000D01*
X63697500Y-121302500D02*
X66000000Y-119000000D01*
%TO.N,+12V*%
X66000000Y-117000000D02*
X157000000Y-117000000D01*
X172842500Y-118810000D02*
X170302500Y-118810000D01*
D20*
X156727057Y-116727057D02*
X157000000Y-117000000D01*
D19*
X64190000Y-118810000D02*
X66000000Y-117000000D01*
D20*
X156727057Y-115413183D02*
X156727057Y-116727057D01*
D19*
X159000000Y-117000000D02*
X166000000Y-117000000D01*
X167810000Y-118810000D02*
X170302500Y-118810000D01*
X157000000Y-117000000D02*
X159000000Y-117000000D01*
X63697500Y-118810000D02*
X64190000Y-118810000D01*
X166000000Y-117000000D02*
X167810000Y-118810000D01*
X61157500Y-118810000D02*
X63697500Y-118810000D01*
%TD*%
%TA.AperFunction,Conductor*%
%TO.N,GND*%
G36*
X62928299Y-119530502D02*
G01*
X62949268Y-119547400D01*
X63027845Y-119625977D01*
X63199902Y-119740941D01*
X63220785Y-119749591D01*
X63276066Y-119794140D01*
X63298487Y-119861503D01*
X63280929Y-119930294D01*
X63228966Y-119978673D01*
X63172567Y-119992000D01*
X63046983Y-119992000D01*
X62943181Y-120002605D01*
X62943178Y-120002606D01*
X62774974Y-120058342D01*
X62624160Y-120151365D01*
X62624154Y-120151370D01*
X62498870Y-120276654D01*
X62498865Y-120276660D01*
X62405840Y-120427477D01*
X62405840Y-120427478D01*
X62393929Y-120463424D01*
X62382582Y-120497666D01*
X62365410Y-120522468D01*
X62345744Y-120550873D01*
X62342168Y-120556037D01*
X62320080Y-120565220D01*
X62288259Y-120578449D01*
X61641657Y-121225051D01*
X61623425Y-121157007D01*
X61557599Y-121042993D01*
X61464507Y-120949901D01*
X61350493Y-120884075D01*
X61282447Y-120865841D01*
X61921668Y-120226621D01*
X61921667Y-120226620D01*
X61869250Y-120188536D01*
X61869248Y-120188535D01*
X61678792Y-120091493D01*
X61678786Y-120091490D01*
X61516062Y-120038618D01*
X61457456Y-119998544D01*
X61429819Y-119933148D01*
X61441926Y-119863191D01*
X61489932Y-119810885D01*
X61506772Y-119802379D01*
X61655098Y-119740941D01*
X61827155Y-119625977D01*
X61905728Y-119547403D01*
X61968038Y-119513380D01*
X61994822Y-119510500D01*
X62860178Y-119510500D01*
X62928299Y-119530502D01*
G37*
%TD.AperFunction*%
%TA.AperFunction,Conductor*%
G36*
X172073299Y-119530502D02*
G01*
X172094268Y-119547400D01*
X172172845Y-119625977D01*
X172344902Y-119740941D01*
X172493219Y-119802376D01*
X172548500Y-119846924D01*
X172570921Y-119914288D01*
X172553363Y-119983079D01*
X172501401Y-120031457D01*
X172483938Y-120038618D01*
X172321210Y-120091492D01*
X172321207Y-120091493D01*
X172130753Y-120188534D01*
X172078331Y-120226621D01*
X172078331Y-120226622D01*
X172717551Y-120865842D01*
X172649507Y-120884075D01*
X172535493Y-120949901D01*
X172442401Y-121042993D01*
X172376575Y-121157007D01*
X172358342Y-121225051D01*
X171709991Y-120576700D01*
X171688651Y-120574378D01*
X171683679Y-120570361D01*
X171677424Y-120569047D01*
X171656396Y-120548316D01*
X171633428Y-120529758D01*
X171629416Y-120521717D01*
X171626866Y-120519203D01*
X171617417Y-120497667D01*
X171606074Y-120463438D01*
X171606073Y-120463436D01*
X171606072Y-120463433D01*
X171594157Y-120427472D01*
X171501134Y-120276660D01*
X171501129Y-120276654D01*
X171375845Y-120151370D01*
X171375839Y-120151365D01*
X171225025Y-120058342D01*
X171056821Y-120002606D01*
X171056818Y-120002605D01*
X170953016Y-119992000D01*
X170827433Y-119992000D01*
X170759312Y-119971998D01*
X170712819Y-119918342D01*
X170702715Y-119848068D01*
X170732209Y-119783488D01*
X170779215Y-119749591D01*
X170800098Y-119740941D01*
X170972155Y-119625977D01*
X171050728Y-119547403D01*
X171113038Y-119513380D01*
X171139822Y-119510500D01*
X172005178Y-119510500D01*
X172073299Y-119530502D01*
G37*
%TD.AperFunction*%
%TA.AperFunction,Conductor*%
G36*
X168821166Y-110220502D02*
G01*
X168842140Y-110237404D01*
X169065095Y-110460358D01*
X169099120Y-110522670D01*
X169102000Y-110549454D01*
X169102000Y-111284481D01*
X169131560Y-111471118D01*
X169131561Y-111471123D01*
X169189951Y-111650828D01*
X169189952Y-111650831D01*
X169189953Y-111650832D01*
X169263415Y-111795010D01*
X169275742Y-111819202D01*
X169386811Y-111972075D01*
X169520424Y-112105688D01*
X169520427Y-112105690D01*
X169673301Y-112216760D01*
X169841668Y-112302547D01*
X169957450Y-112340167D01*
X170016055Y-112380241D01*
X170043692Y-112445637D01*
X170031585Y-112515594D01*
X169983579Y-112567900D01*
X169957450Y-112579833D01*
X169841669Y-112617452D01*
X169673297Y-112703242D01*
X169520424Y-112814311D01*
X169386811Y-112947924D01*
X169275742Y-113100797D01*
X169189951Y-113269171D01*
X169131561Y-113448876D01*
X169102000Y-113635522D01*
X169102000Y-113673500D01*
X169081998Y-113741621D01*
X169028342Y-113788114D01*
X168976000Y-113799500D01*
X167549454Y-113799500D01*
X167481333Y-113779498D01*
X167460359Y-113762595D01*
X165782079Y-112084314D01*
X165782076Y-112084312D01*
X165782074Y-112084310D01*
X165629199Y-111973240D01*
X165460832Y-111887453D01*
X165460831Y-111887452D01*
X165460828Y-111887451D01*
X165281123Y-111829061D01*
X165281119Y-111829060D01*
X165281118Y-111829060D01*
X165094481Y-111799500D01*
X165094478Y-111799500D01*
X153826500Y-111799500D01*
X153758379Y-111779498D01*
X153711886Y-111725842D01*
X153700500Y-111673500D01*
X153700500Y-110931008D01*
X153700499Y-110931004D01*
X153673580Y-110795672D01*
X153620775Y-110668189D01*
X153544114Y-110553458D01*
X153544109Y-110553452D01*
X153446547Y-110455890D01*
X153446541Y-110455885D01*
X153409694Y-110431265D01*
X153364167Y-110376789D01*
X153355318Y-110306345D01*
X153385959Y-110242301D01*
X153446361Y-110204990D01*
X153479696Y-110200500D01*
X164905519Y-110200500D01*
X168753045Y-110200500D01*
X168821166Y-110220502D01*
G37*
%TD.AperFunction*%
%TA.AperFunction,Conductor*%
G36*
X75241621Y-110220502D02*
G01*
X75288114Y-110274158D01*
X75299500Y-110326500D01*
X75299500Y-111068993D01*
X75326420Y-111204328D01*
X75379225Y-111331811D01*
X75430447Y-111408471D01*
X75455885Y-111446541D01*
X75455890Y-111446547D01*
X75553452Y-111544109D01*
X75553458Y-111544114D01*
X75590306Y-111568735D01*
X75635833Y-111623211D01*
X75644682Y-111693655D01*
X75614041Y-111757699D01*
X75553639Y-111795010D01*
X75520304Y-111799500D01*
X68094482Y-111799500D01*
X67905519Y-111799500D01*
X67718882Y-111829060D01*
X67718876Y-111829061D01*
X67539171Y-111887451D01*
X67370797Y-111973242D01*
X67217926Y-112084310D01*
X66809640Y-112492596D01*
X66747328Y-112526621D01*
X66720545Y-112529500D01*
X64237739Y-112529500D01*
X64169618Y-112509498D01*
X64123125Y-112455842D01*
X64113021Y-112385568D01*
X64142515Y-112320988D01*
X64180534Y-112291234D01*
X64326699Y-112216760D01*
X64479573Y-112105690D01*
X64613190Y-111972073D01*
X64724260Y-111819199D01*
X64810047Y-111650832D01*
X64868440Y-111471118D01*
X64874492Y-111432900D01*
X64904904Y-111368749D01*
X64965172Y-111331222D01*
X64979216Y-111328166D01*
X65151118Y-111300940D01*
X65330832Y-111242547D01*
X65499199Y-111156760D01*
X65652074Y-111045690D01*
X66460360Y-110237403D01*
X66522671Y-110203380D01*
X66549454Y-110200500D01*
X75173500Y-110200500D01*
X75241621Y-110220502D01*
G37*
%TD.AperFunction*%
%TA.AperFunction,Conductor*%
G36*
X95241621Y-110220502D02*
G01*
X95288114Y-110274158D01*
X95299500Y-110326500D01*
X95299500Y-111068993D01*
X95326420Y-111204328D01*
X95379225Y-111331811D01*
X95430447Y-111408471D01*
X95455885Y-111446541D01*
X95455890Y-111446547D01*
X95553452Y-111544109D01*
X95553458Y-111544114D01*
X95590306Y-111568735D01*
X95635833Y-111623211D01*
X95644682Y-111693655D01*
X95614041Y-111757699D01*
X95553639Y-111795010D01*
X95520304Y-111799500D01*
X82826500Y-111799500D01*
X82758379Y-111779498D01*
X82711886Y-111725842D01*
X82700500Y-111673500D01*
X82700500Y-110931008D01*
X82700499Y-110931004D01*
X82673580Y-110795672D01*
X82620775Y-110668189D01*
X82544114Y-110553458D01*
X82544109Y-110553452D01*
X82446547Y-110455890D01*
X82446541Y-110455885D01*
X82409694Y-110431265D01*
X82364167Y-110376789D01*
X82355318Y-110306345D01*
X82385959Y-110242301D01*
X82446361Y-110204990D01*
X82479696Y-110200500D01*
X95173500Y-110200500D01*
X95241621Y-110220502D01*
G37*
%TD.AperFunction*%
%TA.AperFunction,Conductor*%
G36*
X114241621Y-110220502D02*
G01*
X114288114Y-110274158D01*
X114299500Y-110326500D01*
X114299500Y-111068993D01*
X114326420Y-111204328D01*
X114379225Y-111331811D01*
X114430447Y-111408471D01*
X114455885Y-111446541D01*
X114455890Y-111446547D01*
X114553452Y-111544109D01*
X114553458Y-111544114D01*
X114590306Y-111568735D01*
X114635833Y-111623211D01*
X114644682Y-111693655D01*
X114614041Y-111757699D01*
X114553639Y-111795010D01*
X114520304Y-111799500D01*
X102826500Y-111799500D01*
X102758379Y-111779498D01*
X102711886Y-111725842D01*
X102700500Y-111673500D01*
X102700500Y-110931008D01*
X102700499Y-110931004D01*
X102673580Y-110795672D01*
X102620775Y-110668189D01*
X102544114Y-110553458D01*
X102544109Y-110553452D01*
X102446547Y-110455890D01*
X102446541Y-110455885D01*
X102409694Y-110431265D01*
X102364167Y-110376789D01*
X102355318Y-110306345D01*
X102385959Y-110242301D01*
X102446361Y-110204990D01*
X102479696Y-110200500D01*
X114173500Y-110200500D01*
X114241621Y-110220502D01*
G37*
%TD.AperFunction*%
%TA.AperFunction,Conductor*%
G36*
X131241621Y-110220502D02*
G01*
X131288114Y-110274158D01*
X131299500Y-110326500D01*
X131299500Y-111068993D01*
X131326420Y-111204328D01*
X131379225Y-111331811D01*
X131430447Y-111408471D01*
X131455885Y-111446541D01*
X131455890Y-111446547D01*
X131553452Y-111544109D01*
X131553458Y-111544114D01*
X131590306Y-111568735D01*
X131635833Y-111623211D01*
X131644682Y-111693655D01*
X131614041Y-111757699D01*
X131553639Y-111795010D01*
X131520304Y-111799500D01*
X121826500Y-111799500D01*
X121758379Y-111779498D01*
X121711886Y-111725842D01*
X121700500Y-111673500D01*
X121700500Y-110931008D01*
X121700499Y-110931004D01*
X121673580Y-110795672D01*
X121620775Y-110668189D01*
X121544114Y-110553458D01*
X121544109Y-110553452D01*
X121446547Y-110455890D01*
X121446541Y-110455885D01*
X121409694Y-110431265D01*
X121364167Y-110376789D01*
X121355318Y-110306345D01*
X121385959Y-110242301D01*
X121446361Y-110204990D01*
X121479696Y-110200500D01*
X131173500Y-110200500D01*
X131241621Y-110220502D01*
G37*
%TD.AperFunction*%
%TA.AperFunction,Conductor*%
G36*
X146241621Y-110220502D02*
G01*
X146288114Y-110274158D01*
X146299500Y-110326500D01*
X146299500Y-111068993D01*
X146326420Y-111204328D01*
X146379225Y-111331811D01*
X146430447Y-111408471D01*
X146455885Y-111446541D01*
X146455890Y-111446547D01*
X146553452Y-111544109D01*
X146553458Y-111544114D01*
X146590306Y-111568735D01*
X146635833Y-111623211D01*
X146644682Y-111693655D01*
X146614041Y-111757699D01*
X146553639Y-111795010D01*
X146520304Y-111799500D01*
X138826500Y-111799500D01*
X138758379Y-111779498D01*
X138711886Y-111725842D01*
X138700500Y-111673500D01*
X138700500Y-110931008D01*
X138700499Y-110931004D01*
X138673580Y-110795672D01*
X138620775Y-110668189D01*
X138544114Y-110553458D01*
X138544109Y-110553452D01*
X138446547Y-110455890D01*
X138446541Y-110455885D01*
X138409694Y-110431265D01*
X138364167Y-110376789D01*
X138355318Y-110306345D01*
X138385959Y-110242301D01*
X138446361Y-110204990D01*
X138479696Y-110200500D01*
X146173500Y-110200500D01*
X146241621Y-110220502D01*
G37*
%TD.AperFunction*%
%TA.AperFunction,Conductor*%
G36*
X172556583Y-86020002D02*
G01*
X172603076Y-86073658D01*
X172613180Y-86143932D01*
X172585861Y-86205933D01*
X172518115Y-86288481D01*
X172315708Y-86591405D01*
X172143965Y-86912713D01*
X172004545Y-87249301D01*
X172004544Y-87249305D01*
X171898782Y-87597956D01*
X171827711Y-87955261D01*
X171827708Y-87955281D01*
X171792000Y-88317831D01*
X171792000Y-88682168D01*
X171827708Y-89044718D01*
X171827711Y-89044738D01*
X171898782Y-89402043D01*
X172004544Y-89750694D01*
X172004545Y-89750698D01*
X172143965Y-90087286D01*
X172315708Y-90408594D01*
X172518110Y-90711510D01*
X172518121Y-90711525D01*
X172703446Y-90937343D01*
X173493460Y-90147328D01*
X173552944Y-90147328D01*
X173552944Y-90246784D01*
X173591004Y-90338670D01*
X173661330Y-90408996D01*
X173753216Y-90447056D01*
X173852672Y-90447056D01*
X173944558Y-90408996D01*
X174014884Y-90338670D01*
X174052944Y-90246784D01*
X174052944Y-90147328D01*
X174014884Y-90055442D01*
X173944558Y-89985116D01*
X173852672Y-89947056D01*
X173753216Y-89947056D01*
X173661330Y-89985116D01*
X173591004Y-90055442D01*
X173552944Y-90147328D01*
X173493460Y-90147328D01*
X174203367Y-89437421D01*
X174279588Y-89542330D01*
X174457670Y-89720412D01*
X174562576Y-89796631D01*
X173062655Y-91296552D01*
X173288485Y-91481886D01*
X173288491Y-91481891D01*
X173591405Y-91684291D01*
X173912713Y-91856034D01*
X174249301Y-91995454D01*
X174249305Y-91995455D01*
X174597956Y-92101217D01*
X174955261Y-92172288D01*
X174955281Y-92172291D01*
X175317831Y-92207999D01*
X175317847Y-92208000D01*
X175682153Y-92208000D01*
X175682168Y-92207999D01*
X176044718Y-92172291D01*
X176044738Y-92172288D01*
X176402043Y-92101217D01*
X176750694Y-91995455D01*
X176750698Y-91995454D01*
X177087286Y-91856034D01*
X177408594Y-91684291D01*
X177711512Y-91481888D01*
X177794066Y-91414138D01*
X177859413Y-91386384D01*
X177929391Y-91398365D01*
X177981783Y-91446278D01*
X178000000Y-91511537D01*
X178000000Y-138488462D01*
X177979998Y-138556583D01*
X177926342Y-138603076D01*
X177856068Y-138613180D01*
X177794067Y-138585861D01*
X177711518Y-138518115D01*
X177408594Y-138315708D01*
X177087286Y-138143965D01*
X176750698Y-138004545D01*
X176750694Y-138004544D01*
X176402043Y-137898782D01*
X176044738Y-137827711D01*
X176044718Y-137827708D01*
X175682168Y-137792000D01*
X175317831Y-137792000D01*
X174955281Y-137827708D01*
X174955261Y-137827711D01*
X174597956Y-137898782D01*
X174249305Y-138004544D01*
X174249301Y-138004545D01*
X173912713Y-138143965D01*
X173591405Y-138315708D01*
X173288481Y-138518115D01*
X173062655Y-138703445D01*
X173062655Y-138703446D01*
X174562577Y-140203368D01*
X174457670Y-140279588D01*
X174279588Y-140457670D01*
X174203368Y-140562577D01*
X173394007Y-139753216D01*
X173552944Y-139753216D01*
X173552944Y-139852672D01*
X173591004Y-139944558D01*
X173661330Y-140014884D01*
X173753216Y-140052944D01*
X173852672Y-140052944D01*
X173944558Y-140014884D01*
X174014884Y-139944558D01*
X174052944Y-139852672D01*
X174052944Y-139753216D01*
X174014884Y-139661330D01*
X173944558Y-139591004D01*
X173852672Y-139552944D01*
X173753216Y-139552944D01*
X173661330Y-139591004D01*
X173591004Y-139661330D01*
X173552944Y-139753216D01*
X173394007Y-139753216D01*
X172703446Y-139062655D01*
X172703445Y-139062655D01*
X172518115Y-139288481D01*
X172315708Y-139591405D01*
X172143965Y-139912713D01*
X172004545Y-140249301D01*
X172004544Y-140249305D01*
X171898782Y-140597956D01*
X171827711Y-140955261D01*
X171827708Y-140955281D01*
X171792000Y-141317831D01*
X171792000Y-141682168D01*
X171827708Y-142044718D01*
X171827711Y-142044738D01*
X171898782Y-142402043D01*
X172004544Y-142750694D01*
X172004545Y-142750698D01*
X172143965Y-143087286D01*
X172315708Y-143408594D01*
X172518115Y-143711518D01*
X172585861Y-143794067D01*
X172613615Y-143859414D01*
X172601633Y-143929392D01*
X172553720Y-143981784D01*
X172488462Y-144000000D01*
X61511538Y-144000000D01*
X61443417Y-143979998D01*
X61396924Y-143926342D01*
X61386820Y-143856068D01*
X61414139Y-143794067D01*
X61481884Y-143711518D01*
X61684291Y-143408594D01*
X61856034Y-143087286D01*
X61995454Y-142750698D01*
X61995455Y-142750694D01*
X62101217Y-142402043D01*
X62172288Y-142044738D01*
X62172291Y-142044718D01*
X62207999Y-141682168D01*
X62208000Y-141682152D01*
X62208000Y-141317847D01*
X62207999Y-141317831D01*
X62172291Y-140955281D01*
X62172288Y-140955261D01*
X62101217Y-140597956D01*
X61995455Y-140249305D01*
X61995454Y-140249301D01*
X61856034Y-139912713D01*
X61684291Y-139591405D01*
X61481891Y-139288491D01*
X61481886Y-139288485D01*
X61296552Y-139062655D01*
X59796631Y-140562576D01*
X59720412Y-140457670D01*
X59542330Y-140279588D01*
X59437421Y-140203367D01*
X59887572Y-139753216D01*
X59947056Y-139753216D01*
X59947056Y-139852672D01*
X59985116Y-139944558D01*
X60055442Y-140014884D01*
X60147328Y-140052944D01*
X60246784Y-140052944D01*
X60338670Y-140014884D01*
X60408996Y-139944558D01*
X60447056Y-139852672D01*
X60447056Y-139753216D01*
X60408996Y-139661330D01*
X60338670Y-139591004D01*
X60246784Y-139552944D01*
X60147328Y-139552944D01*
X60055442Y-139591004D01*
X59985116Y-139661330D01*
X59947056Y-139753216D01*
X59887572Y-139753216D01*
X60937343Y-138703446D01*
X60711525Y-138518121D01*
X60711510Y-138518110D01*
X60408594Y-138315708D01*
X60087286Y-138143965D01*
X59750698Y-138004545D01*
X59750694Y-138004544D01*
X59402043Y-137898782D01*
X59044738Y-137827711D01*
X59044718Y-137827708D01*
X58682168Y-137792000D01*
X58317831Y-137792000D01*
X57955281Y-137827708D01*
X57955261Y-137827711D01*
X57597956Y-137898782D01*
X57249305Y-138004544D01*
X57249301Y-138004545D01*
X56912713Y-138143965D01*
X56591410Y-138315705D01*
X56558878Y-138337442D01*
X56491124Y-138358655D01*
X56422658Y-138339871D01*
X56375216Y-138287052D01*
X56362882Y-138233557D01*
X56356847Y-137364871D01*
X65039500Y-137364871D01*
X65039500Y-139080129D01*
X65065077Y-139241614D01*
X65070046Y-139272989D01*
X65130381Y-139458682D01*
X65130383Y-139458687D01*
X65219029Y-139632664D01*
X65333799Y-139790632D01*
X65333801Y-139790634D01*
X65333803Y-139790637D01*
X65471862Y-139928696D01*
X65471865Y-139928698D01*
X65471868Y-139928701D01*
X65629836Y-140043471D01*
X65803813Y-140132117D01*
X65989510Y-140192453D01*
X65989511Y-140192453D01*
X65989516Y-140192455D01*
X66182371Y-140223000D01*
X66182374Y-140223000D01*
X66377626Y-140223000D01*
X66377629Y-140223000D01*
X66570484Y-140192455D01*
X66756187Y-140132117D01*
X66930164Y-140043471D01*
X67088132Y-139928701D01*
X67226201Y-139790632D01*
X67340971Y-139632664D01*
X67429617Y-139458687D01*
X67489955Y-139272984D01*
X67520500Y-139080129D01*
X67520500Y-137364871D01*
X70119500Y-137364871D01*
X70119500Y-139080129D01*
X70145077Y-139241614D01*
X70150046Y-139272989D01*
X70210381Y-139458682D01*
X70210383Y-139458687D01*
X70299029Y-139632664D01*
X70413799Y-139790632D01*
X70413801Y-139790634D01*
X70413803Y-139790637D01*
X70551862Y-139928696D01*
X70551865Y-139928698D01*
X70551868Y-139928701D01*
X70709836Y-140043471D01*
X70883813Y-140132117D01*
X71069510Y-140192453D01*
X71069511Y-140192453D01*
X71069516Y-140192455D01*
X71262371Y-140223000D01*
X71262374Y-140223000D01*
X71457626Y-140223000D01*
X71457629Y-140223000D01*
X71650484Y-140192455D01*
X71836187Y-140132117D01*
X72010164Y-140043471D01*
X72168132Y-139928701D01*
X72306201Y-139790632D01*
X72420971Y-139632664D01*
X72509617Y-139458687D01*
X72569955Y-139272984D01*
X72600500Y-139080129D01*
X72600500Y-137364871D01*
X75199500Y-137364871D01*
X75199500Y-139080129D01*
X75225077Y-139241614D01*
X75230046Y-139272989D01*
X75290381Y-139458682D01*
X75290383Y-139458687D01*
X75379029Y-139632664D01*
X75493799Y-139790632D01*
X75493801Y-139790634D01*
X75493803Y-139790637D01*
X75631862Y-139928696D01*
X75631865Y-139928698D01*
X75631868Y-139928701D01*
X75789836Y-140043471D01*
X75963813Y-140132117D01*
X76149510Y-140192453D01*
X76149511Y-140192453D01*
X76149516Y-140192455D01*
X76342371Y-140223000D01*
X76342374Y-140223000D01*
X76537626Y-140223000D01*
X76537629Y-140223000D01*
X76730484Y-140192455D01*
X76916187Y-140132117D01*
X77090164Y-140043471D01*
X77248132Y-139928701D01*
X77386201Y-139790632D01*
X77500971Y-139632664D01*
X77589617Y-139458687D01*
X77649955Y-139272984D01*
X77680500Y-139080129D01*
X77680500Y-137364871D01*
X80279500Y-137364871D01*
X80279500Y-139080129D01*
X80305077Y-139241614D01*
X80310046Y-139272989D01*
X80370381Y-139458682D01*
X80370383Y-139458687D01*
X80459029Y-139632664D01*
X80573799Y-139790632D01*
X80573801Y-139790634D01*
X80573803Y-139790637D01*
X80711862Y-139928696D01*
X80711865Y-139928698D01*
X80711868Y-139928701D01*
X80869836Y-140043471D01*
X81043813Y-140132117D01*
X81229510Y-140192453D01*
X81229511Y-140192453D01*
X81229516Y-140192455D01*
X81422371Y-140223000D01*
X81422374Y-140223000D01*
X81617626Y-140223000D01*
X81617629Y-140223000D01*
X81810484Y-140192455D01*
X81996187Y-140132117D01*
X82170164Y-140043471D01*
X82328132Y-139928701D01*
X82466201Y-139790632D01*
X82580971Y-139632664D01*
X82669617Y-139458687D01*
X82729955Y-139272984D01*
X82760500Y-139080129D01*
X82760500Y-137364871D01*
X85359500Y-137364871D01*
X85359500Y-139080129D01*
X85385077Y-139241614D01*
X85390046Y-139272989D01*
X85450381Y-139458682D01*
X85450383Y-139458687D01*
X85539029Y-139632664D01*
X85653799Y-139790632D01*
X85653801Y-139790634D01*
X85653803Y-139790637D01*
X85791862Y-139928696D01*
X85791865Y-139928698D01*
X85791868Y-139928701D01*
X85949836Y-140043471D01*
X86123813Y-140132117D01*
X86309510Y-140192453D01*
X86309511Y-140192453D01*
X86309516Y-140192455D01*
X86502371Y-140223000D01*
X86502374Y-140223000D01*
X86697626Y-140223000D01*
X86697629Y-140223000D01*
X86890484Y-140192455D01*
X87076187Y-140132117D01*
X87250164Y-140043471D01*
X87408132Y-139928701D01*
X87546201Y-139790632D01*
X87660971Y-139632664D01*
X87749617Y-139458687D01*
X87809955Y-139272984D01*
X87840500Y-139080129D01*
X87840500Y-137364871D01*
X90439500Y-137364871D01*
X90439500Y-139080129D01*
X90465077Y-139241614D01*
X90470046Y-139272989D01*
X90530381Y-139458682D01*
X90530383Y-139458687D01*
X90619029Y-139632664D01*
X90733799Y-139790632D01*
X90733801Y-139790634D01*
X90733803Y-139790637D01*
X90871862Y-139928696D01*
X90871865Y-139928698D01*
X90871868Y-139928701D01*
X91029836Y-140043471D01*
X91203813Y-140132117D01*
X91389510Y-140192453D01*
X91389511Y-140192453D01*
X91389516Y-140192455D01*
X91582371Y-140223000D01*
X91582374Y-140223000D01*
X91777626Y-140223000D01*
X91777629Y-140223000D01*
X91970484Y-140192455D01*
X92156187Y-140132117D01*
X92330164Y-140043471D01*
X92488132Y-139928701D01*
X92626201Y-139790632D01*
X92740971Y-139632664D01*
X92829617Y-139458687D01*
X92889955Y-139272984D01*
X92920500Y-139080129D01*
X92920500Y-137364871D01*
X95519500Y-137364871D01*
X95519500Y-139080129D01*
X95545077Y-139241614D01*
X95550046Y-139272989D01*
X95610381Y-139458682D01*
X95610383Y-139458687D01*
X95699029Y-139632664D01*
X95813799Y-139790632D01*
X95813801Y-139790634D01*
X95813803Y-139790637D01*
X95951862Y-139928696D01*
X95951865Y-139928698D01*
X95951868Y-139928701D01*
X96109836Y-140043471D01*
X96283813Y-140132117D01*
X96469510Y-140192453D01*
X96469511Y-140192453D01*
X96469516Y-140192455D01*
X96662371Y-140223000D01*
X96662374Y-140223000D01*
X96857626Y-140223000D01*
X96857629Y-140223000D01*
X97050484Y-140192455D01*
X97236187Y-140132117D01*
X97410164Y-140043471D01*
X97568132Y-139928701D01*
X97706201Y-139790632D01*
X97820971Y-139632664D01*
X97909617Y-139458687D01*
X97969955Y-139272984D01*
X98000500Y-139080129D01*
X98000500Y-137364871D01*
X100599500Y-137364871D01*
X100599500Y-139080129D01*
X100625077Y-139241614D01*
X100630046Y-139272989D01*
X100690381Y-139458682D01*
X100690383Y-139458687D01*
X100779029Y-139632664D01*
X100893799Y-139790632D01*
X100893801Y-139790634D01*
X100893803Y-139790637D01*
X101031862Y-139928696D01*
X101031865Y-139928698D01*
X101031868Y-139928701D01*
X101189836Y-140043471D01*
X101363813Y-140132117D01*
X101549510Y-140192453D01*
X101549511Y-140192453D01*
X101549516Y-140192455D01*
X101742371Y-140223000D01*
X101742374Y-140223000D01*
X101937626Y-140223000D01*
X101937629Y-140223000D01*
X102130484Y-140192455D01*
X102316187Y-140132117D01*
X102490164Y-140043471D01*
X102648132Y-139928701D01*
X102786201Y-139790632D01*
X102900971Y-139632664D01*
X102989617Y-139458687D01*
X103049955Y-139272984D01*
X103080500Y-139080129D01*
X103080500Y-137364871D01*
X105679500Y-137364871D01*
X105679500Y-139080129D01*
X105705077Y-139241614D01*
X105710046Y-139272989D01*
X105770381Y-139458682D01*
X105770383Y-139458687D01*
X105859029Y-139632664D01*
X105973799Y-139790632D01*
X105973801Y-139790634D01*
X105973803Y-139790637D01*
X106111862Y-139928696D01*
X106111865Y-139928698D01*
X106111868Y-139928701D01*
X106269836Y-140043471D01*
X106443813Y-140132117D01*
X106629510Y-140192453D01*
X106629511Y-140192453D01*
X106629516Y-140192455D01*
X106822371Y-140223000D01*
X106822374Y-140223000D01*
X107017626Y-140223000D01*
X107017629Y-140223000D01*
X107210484Y-140192455D01*
X107396187Y-140132117D01*
X107570164Y-140043471D01*
X107728132Y-139928701D01*
X107866201Y-139790632D01*
X107980971Y-139632664D01*
X108069617Y-139458687D01*
X108129955Y-139272984D01*
X108160500Y-139080129D01*
X108160500Y-137364871D01*
X108129955Y-137172016D01*
X108069617Y-136986313D01*
X107980971Y-136812336D01*
X107891614Y-136689346D01*
X107866203Y-136654370D01*
X107866196Y-136654362D01*
X107830066Y-136618232D01*
X110759500Y-136618232D01*
X110759500Y-139826758D01*
X110759501Y-139826773D01*
X110761498Y-139848069D01*
X110762354Y-139857200D01*
X110762355Y-139857205D01*
X110762356Y-139857206D01*
X110807204Y-139985377D01*
X110807207Y-139985384D01*
X110887849Y-140094650D01*
X110997115Y-140175292D01*
X110997122Y-140175295D01*
X111046163Y-140192455D01*
X111125300Y-140220146D01*
X111155733Y-140223000D01*
X112844266Y-140222999D01*
X112874700Y-140220146D01*
X113002883Y-140175293D01*
X113112150Y-140094650D01*
X113192793Y-139985383D01*
X113237646Y-139857200D01*
X113240500Y-139826767D01*
X113240499Y-136618234D01*
X113237646Y-136587800D01*
X113206816Y-136499692D01*
X113192795Y-136459622D01*
X113192792Y-136459615D01*
X113112150Y-136350349D01*
X113002884Y-136269707D01*
X113002877Y-136269704D01*
X112874705Y-136224855D01*
X112874701Y-136224854D01*
X112864555Y-136223902D01*
X112844267Y-136222000D01*
X112844265Y-136222000D01*
X111155741Y-136222000D01*
X111155726Y-136222001D01*
X111131386Y-136224283D01*
X111125300Y-136224854D01*
X111125296Y-136224855D01*
X111125293Y-136224856D01*
X110997122Y-136269704D01*
X110997115Y-136269707D01*
X110887849Y-136350349D01*
X110807207Y-136459615D01*
X110807204Y-136459622D01*
X110762355Y-136587794D01*
X110762354Y-136587798D01*
X110759500Y-136618232D01*
X107830066Y-136618232D01*
X107728137Y-136516303D01*
X107728134Y-136516301D01*
X107728132Y-136516299D01*
X107570164Y-136401529D01*
X107396187Y-136312883D01*
X107396184Y-136312882D01*
X107396182Y-136312881D01*
X107210487Y-136252546D01*
X107210491Y-136252546D01*
X107174588Y-136246859D01*
X107017629Y-136222000D01*
X106822371Y-136222000D01*
X106629516Y-136252545D01*
X106629510Y-136252546D01*
X106443817Y-136312881D01*
X106443811Y-136312884D01*
X106269832Y-136401531D01*
X106111865Y-136516301D01*
X106111862Y-136516303D01*
X105973803Y-136654362D01*
X105973801Y-136654365D01*
X105859031Y-136812332D01*
X105770384Y-136986311D01*
X105770381Y-136986317D01*
X105710046Y-137172010D01*
X105710045Y-137172015D01*
X105710045Y-137172016D01*
X105679500Y-137364871D01*
X103080500Y-137364871D01*
X103049955Y-137172016D01*
X102989617Y-136986313D01*
X102900971Y-136812336D01*
X102786201Y-136654368D01*
X102786198Y-136654365D01*
X102786196Y-136654362D01*
X102648137Y-136516303D01*
X102648134Y-136516301D01*
X102648132Y-136516299D01*
X102490164Y-136401529D01*
X102316187Y-136312883D01*
X102316184Y-136312882D01*
X102316182Y-136312881D01*
X102130487Y-136252546D01*
X102130491Y-136252546D01*
X102094588Y-136246859D01*
X101937629Y-136222000D01*
X101742371Y-136222000D01*
X101549516Y-136252545D01*
X101549510Y-136252546D01*
X101363817Y-136312881D01*
X101363811Y-136312884D01*
X101189832Y-136401531D01*
X101031865Y-136516301D01*
X101031862Y-136516303D01*
X100893803Y-136654362D01*
X100893801Y-136654365D01*
X100779031Y-136812332D01*
X100690384Y-136986311D01*
X100690381Y-136986317D01*
X100630046Y-137172010D01*
X100630045Y-137172015D01*
X100630045Y-137172016D01*
X100599500Y-137364871D01*
X98000500Y-137364871D01*
X97969955Y-137172016D01*
X97909617Y-136986313D01*
X97820971Y-136812336D01*
X97706201Y-136654368D01*
X97706198Y-136654365D01*
X97706196Y-136654362D01*
X97568137Y-136516303D01*
X97568134Y-136516301D01*
X97568132Y-136516299D01*
X97410164Y-136401529D01*
X97236187Y-136312883D01*
X97236184Y-136312882D01*
X97236182Y-136312881D01*
X97050487Y-136252546D01*
X97050491Y-136252546D01*
X97014588Y-136246859D01*
X96857629Y-136222000D01*
X96662371Y-136222000D01*
X96469516Y-136252545D01*
X96469510Y-136252546D01*
X96283817Y-136312881D01*
X96283811Y-136312884D01*
X96109832Y-136401531D01*
X95951865Y-136516301D01*
X95951862Y-136516303D01*
X95813803Y-136654362D01*
X95813801Y-136654365D01*
X95699031Y-136812332D01*
X95610384Y-136986311D01*
X95610381Y-136986317D01*
X95550046Y-137172010D01*
X95550045Y-137172015D01*
X95550045Y-137172016D01*
X95519500Y-137364871D01*
X92920500Y-137364871D01*
X92889955Y-137172016D01*
X92829617Y-136986313D01*
X92740971Y-136812336D01*
X92626201Y-136654368D01*
X92626198Y-136654365D01*
X92626196Y-136654362D01*
X92488137Y-136516303D01*
X92488134Y-136516301D01*
X92488132Y-136516299D01*
X92330164Y-136401529D01*
X92156187Y-136312883D01*
X92156184Y-136312882D01*
X92156182Y-136312881D01*
X91970487Y-136252546D01*
X91970491Y-136252546D01*
X91934588Y-136246859D01*
X91777629Y-136222000D01*
X91582371Y-136222000D01*
X91389516Y-136252545D01*
X91389510Y-136252546D01*
X91203817Y-136312881D01*
X91203811Y-136312884D01*
X91029832Y-136401531D01*
X90871865Y-136516301D01*
X90871862Y-136516303D01*
X90733803Y-136654362D01*
X90733801Y-136654365D01*
X90619031Y-136812332D01*
X90530384Y-136986311D01*
X90530381Y-136986317D01*
X90470046Y-137172010D01*
X90470045Y-137172015D01*
X90470045Y-137172016D01*
X90439500Y-137364871D01*
X87840500Y-137364871D01*
X87809955Y-137172016D01*
X87749617Y-136986313D01*
X87660971Y-136812336D01*
X87546201Y-136654368D01*
X87546198Y-136654365D01*
X87546196Y-136654362D01*
X87408137Y-136516303D01*
X87408134Y-136516301D01*
X87408132Y-136516299D01*
X87250164Y-136401529D01*
X87076187Y-136312883D01*
X87076184Y-136312882D01*
X87076182Y-136312881D01*
X86890487Y-136252546D01*
X86890491Y-136252546D01*
X86854588Y-136246859D01*
X86697629Y-136222000D01*
X86502371Y-136222000D01*
X86309516Y-136252545D01*
X86309510Y-136252546D01*
X86123817Y-136312881D01*
X86123811Y-136312884D01*
X85949832Y-136401531D01*
X85791865Y-136516301D01*
X85791862Y-136516303D01*
X85653803Y-136654362D01*
X85653801Y-136654365D01*
X85539031Y-136812332D01*
X85450384Y-136986311D01*
X85450381Y-136986317D01*
X85390046Y-137172010D01*
X85390045Y-137172015D01*
X85390045Y-137172016D01*
X85359500Y-137364871D01*
X82760500Y-137364871D01*
X82729955Y-137172016D01*
X82669617Y-136986313D01*
X82580971Y-136812336D01*
X82466201Y-136654368D01*
X82466198Y-136654365D01*
X82466196Y-136654362D01*
X82328137Y-136516303D01*
X82328134Y-136516301D01*
X82328132Y-136516299D01*
X82170164Y-136401529D01*
X81996187Y-136312883D01*
X81996184Y-136312882D01*
X81996182Y-136312881D01*
X81810487Y-136252546D01*
X81810491Y-136252546D01*
X81774588Y-136246859D01*
X81617629Y-136222000D01*
X81422371Y-136222000D01*
X81229516Y-136252545D01*
X81229510Y-136252546D01*
X81043817Y-136312881D01*
X81043811Y-136312884D01*
X80869832Y-136401531D01*
X80711865Y-136516301D01*
X80711862Y-136516303D01*
X80573803Y-136654362D01*
X80573801Y-136654365D01*
X80459031Y-136812332D01*
X80370384Y-136986311D01*
X80370381Y-136986317D01*
X80310046Y-137172010D01*
X80310045Y-137172015D01*
X80310045Y-137172016D01*
X80279500Y-137364871D01*
X77680500Y-137364871D01*
X77649955Y-137172016D01*
X77589617Y-136986313D01*
X77500971Y-136812336D01*
X77386201Y-136654368D01*
X77386198Y-136654365D01*
X77386196Y-136654362D01*
X77248137Y-136516303D01*
X77248134Y-136516301D01*
X77248132Y-136516299D01*
X77090164Y-136401529D01*
X76916187Y-136312883D01*
X76916184Y-136312882D01*
X76916182Y-136312881D01*
X76730487Y-136252546D01*
X76730491Y-136252546D01*
X76694588Y-136246859D01*
X76537629Y-136222000D01*
X76342371Y-136222000D01*
X76149516Y-136252545D01*
X76149510Y-136252546D01*
X75963817Y-136312881D01*
X75963811Y-136312884D01*
X75789832Y-136401531D01*
X75631865Y-136516301D01*
X75631862Y-136516303D01*
X75493803Y-136654362D01*
X75493801Y-136654365D01*
X75379031Y-136812332D01*
X75290384Y-136986311D01*
X75290381Y-136986317D01*
X75230046Y-137172010D01*
X75230045Y-137172015D01*
X75230045Y-137172016D01*
X75199500Y-137364871D01*
X72600500Y-137364871D01*
X72569955Y-137172016D01*
X72509617Y-136986313D01*
X72420971Y-136812336D01*
X72306201Y-136654368D01*
X72306198Y-136654365D01*
X72306196Y-136654362D01*
X72168137Y-136516303D01*
X72168134Y-136516301D01*
X72168132Y-136516299D01*
X72010164Y-136401529D01*
X71836187Y-136312883D01*
X71836184Y-136312882D01*
X71836182Y-136312881D01*
X71650487Y-136252546D01*
X71650491Y-136252546D01*
X71614588Y-136246859D01*
X71457629Y-136222000D01*
X71262371Y-136222000D01*
X71069516Y-136252545D01*
X71069510Y-136252546D01*
X70883817Y-136312881D01*
X70883811Y-136312884D01*
X70709832Y-136401531D01*
X70551865Y-136516301D01*
X70551862Y-136516303D01*
X70413803Y-136654362D01*
X70413801Y-136654365D01*
X70299031Y-136812332D01*
X70210384Y-136986311D01*
X70210381Y-136986317D01*
X70150046Y-137172010D01*
X70150045Y-137172015D01*
X70150045Y-137172016D01*
X70119500Y-137364871D01*
X67520500Y-137364871D01*
X67489955Y-137172016D01*
X67429617Y-136986313D01*
X67340971Y-136812336D01*
X67226201Y-136654368D01*
X67226198Y-136654365D01*
X67226196Y-136654362D01*
X67088137Y-136516303D01*
X67088134Y-136516301D01*
X67088132Y-136516299D01*
X66930164Y-136401529D01*
X66756187Y-136312883D01*
X66756184Y-136312882D01*
X66756182Y-136312881D01*
X66570487Y-136252546D01*
X66570491Y-136252546D01*
X66534588Y-136246859D01*
X66377629Y-136222000D01*
X66182371Y-136222000D01*
X65989516Y-136252545D01*
X65989510Y-136252546D01*
X65803817Y-136312881D01*
X65803811Y-136312884D01*
X65629832Y-136401531D01*
X65471865Y-136516301D01*
X65471862Y-136516303D01*
X65333803Y-136654362D01*
X65333801Y-136654365D01*
X65219031Y-136812332D01*
X65130384Y-136986311D01*
X65130381Y-136986317D01*
X65070046Y-137172010D01*
X65070045Y-137172015D01*
X65070045Y-137172016D01*
X65039500Y-137364871D01*
X56356847Y-137364871D01*
X56244844Y-121243126D01*
X59799500Y-121243126D01*
X59799500Y-121456873D01*
X59832940Y-121668003D01*
X59898990Y-121871286D01*
X59898993Y-121871292D01*
X59996035Y-122061748D01*
X59996036Y-122061750D01*
X60034120Y-122114167D01*
X60034121Y-122114168D01*
X60673341Y-121474947D01*
X60691575Y-121542993D01*
X60757401Y-121657007D01*
X60850493Y-121750099D01*
X60964507Y-121815925D01*
X61032551Y-121834157D01*
X60393331Y-122473378D01*
X60445749Y-122511463D01*
X60445751Y-122511464D01*
X60636207Y-122608506D01*
X60636213Y-122608509D01*
X60839496Y-122674559D01*
X61050626Y-122708000D01*
X61264374Y-122708000D01*
X61475503Y-122674559D01*
X61678786Y-122608509D01*
X61678792Y-122608506D01*
X61869250Y-122511463D01*
X61921667Y-122473378D01*
X61921667Y-122473376D01*
X61282448Y-121834157D01*
X61350493Y-121815925D01*
X61464507Y-121750099D01*
X61557599Y-121657007D01*
X61623425Y-121542993D01*
X61641657Y-121474948D01*
X62291033Y-122124324D01*
X62322571Y-122130949D01*
X62373131Y-122180791D01*
X62382593Y-122202363D01*
X62383367Y-122204702D01*
X62405841Y-122272522D01*
X62498865Y-122423339D01*
X62498870Y-122423345D01*
X62624154Y-122548629D01*
X62624160Y-122548634D01*
X62774974Y-122641657D01*
X62943178Y-122697393D01*
X62943181Y-122697394D01*
X63046983Y-122707999D01*
X63046983Y-122708000D01*
X63443500Y-122708000D01*
X63443500Y-121780702D01*
X63504507Y-121815925D01*
X63631674Y-121850000D01*
X63763326Y-121850000D01*
X63890493Y-121815925D01*
X63951500Y-121780702D01*
X63951500Y-122708000D01*
X64348017Y-122708000D01*
X64348016Y-122707999D01*
X64451818Y-122697394D01*
X64451821Y-122697393D01*
X64620025Y-122641657D01*
X64770839Y-122548634D01*
X64770845Y-122548629D01*
X64896129Y-122423345D01*
X64896134Y-122423339D01*
X64989157Y-122272525D01*
X65044893Y-122104321D01*
X65044894Y-122104318D01*
X65055499Y-122000516D01*
X65055500Y-122000516D01*
X65055500Y-121604000D01*
X64128203Y-121604000D01*
X64163425Y-121542993D01*
X64197500Y-121415826D01*
X64197500Y-121284174D01*
X64163425Y-121157007D01*
X64128203Y-121096000D01*
X65055500Y-121096000D01*
X65055500Y-120699487D01*
X65054196Y-120686728D01*
X65054196Y-120686727D01*
X65054195Y-120686724D01*
X65053519Y-120680105D01*
X72299500Y-120680105D01*
X72299500Y-125068997D01*
X72326420Y-125204328D01*
X72379225Y-125331811D01*
X72455886Y-125446543D01*
X82553457Y-135544114D01*
X82668189Y-135620775D01*
X82795672Y-135673580D01*
X82931006Y-135700500D01*
X82931007Y-135700500D01*
X118435153Y-135700500D01*
X118503274Y-135720502D01*
X118524248Y-135737405D01*
X120722595Y-137935752D01*
X120756621Y-137998064D01*
X120759500Y-138024846D01*
X120759500Y-139080129D01*
X120785077Y-139241614D01*
X120790046Y-139272989D01*
X120850381Y-139458682D01*
X120850383Y-139458687D01*
X120939029Y-139632664D01*
X121053799Y-139790632D01*
X121053801Y-139790634D01*
X121053803Y-139790637D01*
X121191862Y-139928696D01*
X121191865Y-139928698D01*
X121191868Y-139928701D01*
X121349836Y-140043471D01*
X121523813Y-140132117D01*
X121709510Y-140192453D01*
X121709511Y-140192453D01*
X121709516Y-140192455D01*
X121902371Y-140223000D01*
X121902374Y-140223000D01*
X122097626Y-140223000D01*
X122097629Y-140223000D01*
X122290484Y-140192455D01*
X122476187Y-140132117D01*
X122650164Y-140043471D01*
X122808132Y-139928701D01*
X122946201Y-139790632D01*
X123060971Y-139632664D01*
X123149617Y-139458687D01*
X123209955Y-139272984D01*
X123240500Y-139080129D01*
X123240500Y-137364871D01*
X123209955Y-137172016D01*
X123149617Y-136986313D01*
X123060971Y-136812336D01*
X122946201Y-136654368D01*
X122946198Y-136654365D01*
X122946196Y-136654362D01*
X122808137Y-136516303D01*
X122808134Y-136516301D01*
X122808132Y-136516299D01*
X122650164Y-136401529D01*
X122476187Y-136312883D01*
X122476184Y-136312882D01*
X122476182Y-136312881D01*
X122290487Y-136252546D01*
X122290491Y-136252546D01*
X122254588Y-136246859D01*
X122097629Y-136222000D01*
X121902371Y-136222000D01*
X121709516Y-136252545D01*
X121709510Y-136252546D01*
X121523817Y-136312881D01*
X121523811Y-136312884D01*
X121349837Y-136401528D01*
X121349828Y-136401534D01*
X121332549Y-136414087D01*
X121265680Y-136437942D01*
X121196529Y-136421857D01*
X121169399Y-136401242D01*
X119224047Y-134455890D01*
X119224043Y-134455886D01*
X119109311Y-134379225D01*
X119028921Y-134345926D01*
X118981831Y-134326421D01*
X118981828Y-134326420D01*
X118846497Y-134299500D01*
X118846494Y-134299500D01*
X118846493Y-134299500D01*
X83342347Y-134299500D01*
X83274226Y-134279498D01*
X83253252Y-134262595D01*
X73737405Y-124746748D01*
X73703379Y-124684436D01*
X73700500Y-124657653D01*
X73700500Y-121091448D01*
X73720502Y-121023327D01*
X73737405Y-121002353D01*
X73753084Y-120986674D01*
X73829745Y-120871942D01*
X73882550Y-120744460D01*
X73895350Y-120680108D01*
X73909470Y-120609124D01*
X73909470Y-120544714D01*
X83931605Y-120544714D01*
X83931605Y-121301102D01*
X83958525Y-121436433D01*
X83958526Y-121436436D01*
X83962714Y-121446547D01*
X84011330Y-121563916D01*
X84087991Y-121678648D01*
X95953457Y-133544114D01*
X96068189Y-133620775D01*
X96195672Y-133673580D01*
X96331006Y-133700500D01*
X96331007Y-133700500D01*
X121515153Y-133700500D01*
X121583274Y-133720502D01*
X121604248Y-133737405D01*
X125802595Y-137935751D01*
X125836621Y-137998063D01*
X125839500Y-138024846D01*
X125839500Y-139080129D01*
X125865077Y-139241614D01*
X125870046Y-139272989D01*
X125930381Y-139458682D01*
X125930383Y-139458687D01*
X126019029Y-139632664D01*
X126133799Y-139790632D01*
X126133801Y-139790634D01*
X126133803Y-139790637D01*
X126271862Y-139928696D01*
X126271865Y-139928698D01*
X126271868Y-139928701D01*
X126429836Y-140043471D01*
X126603813Y-140132117D01*
X126789510Y-140192453D01*
X126789511Y-140192453D01*
X126789516Y-140192455D01*
X126982371Y-140223000D01*
X126982374Y-140223000D01*
X127177626Y-140223000D01*
X127177629Y-140223000D01*
X127370484Y-140192455D01*
X127556187Y-140132117D01*
X127730164Y-140043471D01*
X127888132Y-139928701D01*
X128026201Y-139790632D01*
X128140971Y-139632664D01*
X128229617Y-139458687D01*
X128289955Y-139272984D01*
X128320500Y-139080129D01*
X128320500Y-137364871D01*
X128289955Y-137172016D01*
X128229617Y-136986313D01*
X128140971Y-136812336D01*
X128026201Y-136654368D01*
X128026198Y-136654365D01*
X128026196Y-136654362D01*
X127888137Y-136516303D01*
X127888134Y-136516301D01*
X127888132Y-136516299D01*
X127730164Y-136401529D01*
X127556187Y-136312883D01*
X127556184Y-136312882D01*
X127556182Y-136312881D01*
X127370487Y-136252546D01*
X127370491Y-136252546D01*
X127334588Y-136246859D01*
X127177629Y-136222000D01*
X126982371Y-136222000D01*
X126789516Y-136252545D01*
X126789510Y-136252546D01*
X126603817Y-136312881D01*
X126603811Y-136312884D01*
X126429831Y-136401531D01*
X126412549Y-136414087D01*
X126345680Y-136437942D01*
X126276529Y-136421858D01*
X126249398Y-136401242D01*
X124304046Y-134455890D01*
X122304043Y-132455886D01*
X122189311Y-132379225D01*
X122108921Y-132345926D01*
X122061831Y-132326421D01*
X122061828Y-132326420D01*
X121926497Y-132299500D01*
X121926494Y-132299500D01*
X121926493Y-132299500D01*
X96742347Y-132299500D01*
X96674226Y-132279498D01*
X96653252Y-132262595D01*
X85369510Y-120978853D01*
X85343381Y-120931002D01*
X92299500Y-120931002D01*
X92299500Y-121068997D01*
X92326420Y-121204328D01*
X92379225Y-121331811D01*
X92455886Y-121446543D01*
X102553457Y-131544114D01*
X102668189Y-131620775D01*
X102795672Y-131673580D01*
X102931006Y-131700500D01*
X102931007Y-131700500D01*
X124595153Y-131700500D01*
X124663274Y-131720502D01*
X124684248Y-131737405D01*
X130882595Y-137935751D01*
X130916621Y-137998063D01*
X130919500Y-138024846D01*
X130919500Y-139080129D01*
X130945077Y-139241614D01*
X130950046Y-139272989D01*
X131010381Y-139458682D01*
X131010383Y-139458687D01*
X131099029Y-139632664D01*
X131213799Y-139790632D01*
X131213801Y-139790634D01*
X131213803Y-139790637D01*
X131351862Y-139928696D01*
X131351865Y-139928698D01*
X131351868Y-139928701D01*
X131509836Y-140043471D01*
X131683813Y-140132117D01*
X131869510Y-140192453D01*
X131869511Y-140192453D01*
X131869516Y-140192455D01*
X132062371Y-140223000D01*
X132062374Y-140223000D01*
X132257626Y-140223000D01*
X132257629Y-140223000D01*
X132450484Y-140192455D01*
X132636187Y-140132117D01*
X132810164Y-140043471D01*
X132968132Y-139928701D01*
X133106201Y-139790632D01*
X133220971Y-139632664D01*
X133309617Y-139458687D01*
X133369955Y-139272984D01*
X133400500Y-139080129D01*
X133400500Y-137364871D01*
X133369955Y-137172016D01*
X133309617Y-136986313D01*
X133220971Y-136812336D01*
X133106201Y-136654368D01*
X133106198Y-136654365D01*
X133106196Y-136654362D01*
X132968137Y-136516303D01*
X132968134Y-136516301D01*
X132968132Y-136516299D01*
X132810164Y-136401529D01*
X132636187Y-136312883D01*
X132636184Y-136312882D01*
X132636182Y-136312881D01*
X132450487Y-136252546D01*
X132450491Y-136252546D01*
X132414588Y-136246859D01*
X132257629Y-136222000D01*
X132062371Y-136222000D01*
X131869516Y-136252545D01*
X131869510Y-136252546D01*
X131683817Y-136312881D01*
X131683811Y-136312884D01*
X131509831Y-136401531D01*
X131492549Y-136414087D01*
X131425680Y-136437942D01*
X131356529Y-136421858D01*
X131329398Y-136401242D01*
X125384047Y-130455890D01*
X125384046Y-130455889D01*
X125384043Y-130455886D01*
X125269311Y-130379225D01*
X125188921Y-130345926D01*
X125141831Y-130326421D01*
X125141828Y-130326420D01*
X125006497Y-130299500D01*
X125006494Y-130299500D01*
X125006493Y-130299500D01*
X103342347Y-130299500D01*
X103274226Y-130279498D01*
X103253252Y-130262595D01*
X93921661Y-120931004D01*
X104299500Y-120931004D01*
X104299500Y-121068995D01*
X104316385Y-121153879D01*
X104326420Y-121204328D01*
X104379225Y-121331811D01*
X104430052Y-121407879D01*
X104455885Y-121446541D01*
X104455890Y-121446547D01*
X104553452Y-121544109D01*
X104553458Y-121544114D01*
X104668189Y-121620775D01*
X104795672Y-121673580D01*
X104931007Y-121700500D01*
X105657653Y-121700500D01*
X105725774Y-121720502D01*
X105746748Y-121737405D01*
X112553457Y-128544114D01*
X112668189Y-128620775D01*
X112795672Y-128673580D01*
X112931006Y-128700500D01*
X112931007Y-128700500D01*
X126675153Y-128700500D01*
X126743274Y-128720502D01*
X126764248Y-128737405D01*
X135962595Y-137935752D01*
X135996621Y-137998064D01*
X135999500Y-138024846D01*
X135999500Y-139080129D01*
X136025077Y-139241614D01*
X136030046Y-139272989D01*
X136090381Y-139458682D01*
X136090383Y-139458687D01*
X136179029Y-139632664D01*
X136293799Y-139790632D01*
X136293801Y-139790634D01*
X136293803Y-139790637D01*
X136431862Y-139928696D01*
X136431865Y-139928698D01*
X136431868Y-139928701D01*
X136589836Y-140043471D01*
X136763813Y-140132117D01*
X136949510Y-140192453D01*
X136949511Y-140192453D01*
X136949516Y-140192455D01*
X137142371Y-140223000D01*
X137142374Y-140223000D01*
X137337626Y-140223000D01*
X137337629Y-140223000D01*
X137530484Y-140192455D01*
X137716187Y-140132117D01*
X137890164Y-140043471D01*
X138048132Y-139928701D01*
X138186201Y-139790632D01*
X138300971Y-139632664D01*
X138389617Y-139458687D01*
X138449955Y-139272984D01*
X138480500Y-139080129D01*
X138480500Y-137364871D01*
X138449955Y-137172016D01*
X138389617Y-136986313D01*
X138300971Y-136812336D01*
X138186201Y-136654368D01*
X138186198Y-136654365D01*
X138186196Y-136654362D01*
X138048137Y-136516303D01*
X138048134Y-136516301D01*
X138048132Y-136516299D01*
X137890164Y-136401529D01*
X137716187Y-136312883D01*
X137716184Y-136312882D01*
X137716182Y-136312881D01*
X137530487Y-136252546D01*
X137530491Y-136252546D01*
X137494588Y-136246859D01*
X137337629Y-136222000D01*
X137142371Y-136222000D01*
X136949516Y-136252545D01*
X136949510Y-136252546D01*
X136763817Y-136312881D01*
X136763811Y-136312884D01*
X136589837Y-136401528D01*
X136589828Y-136401534D01*
X136572549Y-136414087D01*
X136505680Y-136437942D01*
X136436529Y-136421857D01*
X136409399Y-136401242D01*
X127464047Y-127455890D01*
X127464043Y-127455886D01*
X127349311Y-127379225D01*
X127268921Y-127345926D01*
X127221831Y-127326421D01*
X127221828Y-127326420D01*
X127086497Y-127299500D01*
X127086494Y-127299500D01*
X127086493Y-127299500D01*
X113342347Y-127299500D01*
X113274226Y-127279498D01*
X113253252Y-127262595D01*
X106921659Y-120931002D01*
X112299500Y-120931002D01*
X112299500Y-121068997D01*
X112326420Y-121204328D01*
X112379225Y-121331811D01*
X112455886Y-121446543D01*
X117553457Y-126544114D01*
X117668189Y-126620775D01*
X117795672Y-126673580D01*
X117931006Y-126700500D01*
X117931007Y-126700500D01*
X129755153Y-126700500D01*
X129823274Y-126720502D01*
X129844248Y-126737405D01*
X141042595Y-137935752D01*
X141076621Y-137998064D01*
X141079500Y-138024846D01*
X141079500Y-139080129D01*
X141105077Y-139241614D01*
X141110046Y-139272989D01*
X141170381Y-139458682D01*
X141170383Y-139458687D01*
X141259029Y-139632664D01*
X141373799Y-139790632D01*
X141373801Y-139790634D01*
X141373803Y-139790637D01*
X141511862Y-139928696D01*
X141511865Y-139928698D01*
X141511868Y-139928701D01*
X141669836Y-140043471D01*
X141843813Y-140132117D01*
X142029510Y-140192453D01*
X142029511Y-140192453D01*
X142029516Y-140192455D01*
X142222371Y-140223000D01*
X142222374Y-140223000D01*
X142417626Y-140223000D01*
X142417629Y-140223000D01*
X142610484Y-140192455D01*
X142796187Y-140132117D01*
X142970164Y-140043471D01*
X143128132Y-139928701D01*
X143266201Y-139790632D01*
X143380971Y-139632664D01*
X143469617Y-139458687D01*
X143529955Y-139272984D01*
X143560500Y-139080129D01*
X143560500Y-137364871D01*
X143529955Y-137172016D01*
X143469617Y-136986313D01*
X143380971Y-136812336D01*
X143266201Y-136654368D01*
X143266198Y-136654365D01*
X143266196Y-136654362D01*
X143128137Y-136516303D01*
X143128134Y-136516301D01*
X143128132Y-136516299D01*
X142970164Y-136401529D01*
X142796187Y-136312883D01*
X142796184Y-136312882D01*
X142796182Y-136312881D01*
X142610487Y-136252546D01*
X142610491Y-136252546D01*
X142574588Y-136246859D01*
X142417629Y-136222000D01*
X142222371Y-136222000D01*
X142029516Y-136252545D01*
X142029510Y-136252546D01*
X141843817Y-136312881D01*
X141843811Y-136312884D01*
X141669837Y-136401528D01*
X141669828Y-136401534D01*
X141652549Y-136414087D01*
X141585680Y-136437942D01*
X141516529Y-136421857D01*
X141489399Y-136401242D01*
X130544047Y-125455890D01*
X130544043Y-125455886D01*
X130429311Y-125379225D01*
X130314841Y-125331810D01*
X130301831Y-125326421D01*
X130301828Y-125326420D01*
X130166497Y-125299500D01*
X130166494Y-125299500D01*
X130166493Y-125299500D01*
X118342347Y-125299500D01*
X118274226Y-125279498D01*
X118253252Y-125262595D01*
X113921659Y-120931002D01*
X122299500Y-120931002D01*
X122299500Y-121068997D01*
X122326420Y-121204328D01*
X122379225Y-121331811D01*
X122455886Y-121446543D01*
X122455890Y-121446547D01*
X124553449Y-123544107D01*
X124553453Y-123544110D01*
X124553457Y-123544114D01*
X124595524Y-123572222D01*
X124595525Y-123572223D01*
X124618780Y-123587761D01*
X124668189Y-123620775D01*
X124795672Y-123673580D01*
X124931007Y-123700500D01*
X129324283Y-123700500D01*
X129392404Y-123720502D01*
X129413378Y-123737405D01*
X131121411Y-125445437D01*
X131218983Y-125543009D01*
X131333714Y-125619670D01*
X131408391Y-125650602D01*
X131461196Y-125672475D01*
X131488116Y-125677829D01*
X131596532Y-125699395D01*
X133834048Y-125699395D01*
X133902169Y-125719397D01*
X133923143Y-125736300D01*
X146122595Y-137935752D01*
X146156621Y-137998064D01*
X146159500Y-138024846D01*
X146159500Y-139080129D01*
X146185077Y-139241614D01*
X146190046Y-139272989D01*
X146250381Y-139458682D01*
X146250383Y-139458687D01*
X146339029Y-139632664D01*
X146453799Y-139790632D01*
X146453801Y-139790634D01*
X146453803Y-139790637D01*
X146591862Y-139928696D01*
X146591865Y-139928698D01*
X146591868Y-139928701D01*
X146749836Y-140043471D01*
X146923813Y-140132117D01*
X147109510Y-140192453D01*
X147109511Y-140192453D01*
X147109516Y-140192455D01*
X147302371Y-140223000D01*
X147302374Y-140223000D01*
X147497626Y-140223000D01*
X147497629Y-140223000D01*
X147690484Y-140192455D01*
X147876187Y-140132117D01*
X148050164Y-140043471D01*
X148208132Y-139928701D01*
X148346201Y-139790632D01*
X148460971Y-139632664D01*
X148549617Y-139458687D01*
X148609955Y-139272984D01*
X148640500Y-139080129D01*
X148640500Y-137364871D01*
X148609955Y-137172016D01*
X148549617Y-136986313D01*
X148460971Y-136812336D01*
X148346201Y-136654368D01*
X148346198Y-136654365D01*
X148346196Y-136654362D01*
X148208137Y-136516303D01*
X148208134Y-136516301D01*
X148208132Y-136516299D01*
X148050164Y-136401529D01*
X147876187Y-136312883D01*
X147876184Y-136312882D01*
X147876182Y-136312881D01*
X147690487Y-136252546D01*
X147690491Y-136252546D01*
X147654588Y-136246859D01*
X147497629Y-136222000D01*
X147302371Y-136222000D01*
X147109516Y-136252545D01*
X147109510Y-136252546D01*
X146923817Y-136312881D01*
X146923811Y-136312884D01*
X146749837Y-136401528D01*
X146749828Y-136401534D01*
X146732549Y-136414087D01*
X146665680Y-136437942D01*
X146596529Y-136421857D01*
X146569399Y-136401242D01*
X134622942Y-124454785D01*
X134622938Y-124454781D01*
X134508206Y-124378120D01*
X134427816Y-124344821D01*
X134380726Y-124325316D01*
X134380723Y-124325315D01*
X134245392Y-124298395D01*
X134245389Y-124298395D01*
X134245388Y-124298395D01*
X132007871Y-124298395D01*
X131939750Y-124278393D01*
X131918776Y-124261490D01*
X131514559Y-123857273D01*
X131480533Y-123794961D01*
X131485598Y-123724146D01*
X131528145Y-123667310D01*
X131594665Y-123642499D01*
X131664039Y-123657590D01*
X131673653Y-123663411D01*
X131701608Y-123682090D01*
X131829091Y-123734895D01*
X131964425Y-123761815D01*
X132102413Y-123761815D01*
X132237747Y-123734895D01*
X132365230Y-123682090D01*
X132479962Y-123605429D01*
X134347986Y-121737405D01*
X134410298Y-121703379D01*
X134437081Y-121700500D01*
X134915153Y-121700500D01*
X134983274Y-121720502D01*
X135004248Y-121737405D01*
X151202595Y-137935752D01*
X151236621Y-137998064D01*
X151239500Y-138024846D01*
X151239500Y-139080129D01*
X151265077Y-139241614D01*
X151270046Y-139272989D01*
X151330381Y-139458682D01*
X151330383Y-139458687D01*
X151419029Y-139632664D01*
X151533799Y-139790632D01*
X151533801Y-139790634D01*
X151533803Y-139790637D01*
X151671862Y-139928696D01*
X151671865Y-139928698D01*
X151671868Y-139928701D01*
X151829836Y-140043471D01*
X152003813Y-140132117D01*
X152189510Y-140192453D01*
X152189511Y-140192453D01*
X152189516Y-140192455D01*
X152382371Y-140223000D01*
X152382374Y-140223000D01*
X152577626Y-140223000D01*
X152577629Y-140223000D01*
X152770484Y-140192455D01*
X152956187Y-140132117D01*
X153130164Y-140043471D01*
X153288132Y-139928701D01*
X153426201Y-139790632D01*
X153540971Y-139632664D01*
X153629617Y-139458687D01*
X153689955Y-139272984D01*
X153720500Y-139080129D01*
X153720500Y-137364871D01*
X153689955Y-137172016D01*
X153629617Y-136986313D01*
X153540971Y-136812336D01*
X153426201Y-136654368D01*
X153426198Y-136654365D01*
X153426196Y-136654362D01*
X153288137Y-136516303D01*
X153288134Y-136516301D01*
X153288132Y-136516299D01*
X153130164Y-136401529D01*
X152956187Y-136312883D01*
X152956184Y-136312882D01*
X152956182Y-136312881D01*
X152770487Y-136252546D01*
X152770491Y-136252546D01*
X152734588Y-136246859D01*
X152577629Y-136222000D01*
X152382371Y-136222000D01*
X152189516Y-136252545D01*
X152189510Y-136252546D01*
X152003817Y-136312881D01*
X152003811Y-136312884D01*
X151829837Y-136401528D01*
X151829828Y-136401534D01*
X151812549Y-136414087D01*
X151745680Y-136437942D01*
X151676529Y-136421857D01*
X151649399Y-136401242D01*
X137387632Y-122139475D01*
X138510183Y-122139475D01*
X138510183Y-122277470D01*
X138537103Y-122412801D01*
X138537104Y-122412804D01*
X138589908Y-122540284D01*
X138589910Y-122540288D01*
X138666564Y-122655011D01*
X138666568Y-122655015D01*
X138666569Y-122655016D01*
X138741058Y-122729504D01*
X138788668Y-122777114D01*
X138903399Y-122853775D01*
X138971668Y-122882053D01*
X139030881Y-122906580D01*
X139042912Y-122908973D01*
X139166217Y-122933500D01*
X141228153Y-122933500D01*
X141296274Y-122953502D01*
X141317248Y-122970405D01*
X156282595Y-137935752D01*
X156316621Y-137998064D01*
X156319500Y-138024846D01*
X156319500Y-139080129D01*
X156345077Y-139241614D01*
X156350046Y-139272989D01*
X156410381Y-139458682D01*
X156410383Y-139458687D01*
X156499029Y-139632664D01*
X156613799Y-139790632D01*
X156613801Y-139790634D01*
X156613803Y-139790637D01*
X156751862Y-139928696D01*
X156751865Y-139928698D01*
X156751868Y-139928701D01*
X156909836Y-140043471D01*
X157083813Y-140132117D01*
X157269510Y-140192453D01*
X157269511Y-140192453D01*
X157269516Y-140192455D01*
X157462371Y-140223000D01*
X157462374Y-140223000D01*
X157657626Y-140223000D01*
X157657629Y-140223000D01*
X157850484Y-140192455D01*
X158036187Y-140132117D01*
X158210164Y-140043471D01*
X158368132Y-139928701D01*
X158506201Y-139790632D01*
X158620971Y-139632664D01*
X158709617Y-139458687D01*
X158769955Y-139272984D01*
X158800500Y-139080129D01*
X158800500Y-137364871D01*
X158769955Y-137172016D01*
X158709617Y-136986313D01*
X158620971Y-136812336D01*
X158506201Y-136654368D01*
X158506198Y-136654365D01*
X158506196Y-136654362D01*
X158368137Y-136516303D01*
X158368134Y-136516301D01*
X158368132Y-136516299D01*
X158210164Y-136401529D01*
X158036187Y-136312883D01*
X158036184Y-136312882D01*
X158036182Y-136312881D01*
X157850487Y-136252546D01*
X157850491Y-136252546D01*
X157814588Y-136246859D01*
X157657629Y-136222000D01*
X157462371Y-136222000D01*
X157269516Y-136252545D01*
X157269510Y-136252546D01*
X157083817Y-136312881D01*
X157083811Y-136312884D01*
X156909837Y-136401528D01*
X156909828Y-136401534D01*
X156892549Y-136414087D01*
X156825680Y-136437942D01*
X156756529Y-136421857D01*
X156729399Y-136401242D01*
X143627055Y-123298898D01*
X147067604Y-123298898D01*
X147067604Y-123298901D01*
X147067604Y-123436887D01*
X147094524Y-123572222D01*
X147147329Y-123699705D01*
X147223990Y-123814436D01*
X147321562Y-123912008D01*
X147321566Y-123912010D01*
X147321570Y-123912014D01*
X147363348Y-123939929D01*
X147382442Y-123955599D01*
X161362595Y-137935752D01*
X161396621Y-137998064D01*
X161399500Y-138024846D01*
X161399500Y-139080129D01*
X161425077Y-139241614D01*
X161430046Y-139272989D01*
X161490381Y-139458682D01*
X161490383Y-139458687D01*
X161579029Y-139632664D01*
X161693799Y-139790632D01*
X161693801Y-139790634D01*
X161693803Y-139790637D01*
X161831862Y-139928696D01*
X161831865Y-139928698D01*
X161831868Y-139928701D01*
X161989836Y-140043471D01*
X162163813Y-140132117D01*
X162349510Y-140192453D01*
X162349511Y-140192453D01*
X162349516Y-140192455D01*
X162542371Y-140223000D01*
X162542374Y-140223000D01*
X162737626Y-140223000D01*
X162737629Y-140223000D01*
X162930484Y-140192455D01*
X163116187Y-140132117D01*
X163290164Y-140043471D01*
X163448132Y-139928701D01*
X163586201Y-139790632D01*
X163700971Y-139632664D01*
X163789617Y-139458687D01*
X163849955Y-139272984D01*
X163880500Y-139080129D01*
X163880500Y-137364871D01*
X163849955Y-137172016D01*
X163789617Y-136986313D01*
X163700971Y-136812336D01*
X163586201Y-136654368D01*
X163586198Y-136654365D01*
X163586196Y-136654362D01*
X163448137Y-136516303D01*
X163448134Y-136516301D01*
X163448132Y-136516299D01*
X163290164Y-136401529D01*
X163116187Y-136312883D01*
X163116184Y-136312882D01*
X163116182Y-136312881D01*
X162930487Y-136252546D01*
X162930491Y-136252546D01*
X162894588Y-136246859D01*
X162737629Y-136222000D01*
X162542371Y-136222000D01*
X162349516Y-136252545D01*
X162349510Y-136252546D01*
X162163817Y-136312881D01*
X162163811Y-136312884D01*
X161989837Y-136401528D01*
X161989828Y-136401534D01*
X161972549Y-136414087D01*
X161905680Y-136437942D01*
X161836529Y-136421857D01*
X161809399Y-136401242D01*
X148231941Y-122823784D01*
X148231937Y-122823780D01*
X148198874Y-122801688D01*
X152252656Y-122801688D01*
X152252656Y-122939679D01*
X152271832Y-123036083D01*
X152279576Y-123075012D01*
X152332381Y-123202495D01*
X152374575Y-123265643D01*
X152409041Y-123317225D01*
X152409046Y-123317231D01*
X152506608Y-123414793D01*
X152506614Y-123414798D01*
X152621345Y-123491459D01*
X152748828Y-123544264D01*
X152884163Y-123571184D01*
X153022149Y-123571184D01*
X156528337Y-123571184D01*
X156596458Y-123591186D01*
X156617432Y-123608089D01*
X166982595Y-133973252D01*
X167016621Y-134035564D01*
X167019500Y-134062347D01*
X167019500Y-136096000D01*
X166999498Y-136164121D01*
X166945842Y-136210614D01*
X166893506Y-136222000D01*
X166875744Y-136222000D01*
X166875725Y-136222001D01*
X166850833Y-136224335D01*
X166845300Y-136224854D01*
X166845296Y-136224855D01*
X166845293Y-136224856D01*
X166717122Y-136269704D01*
X166717115Y-136269707D01*
X166607849Y-136350349D01*
X166527207Y-136459615D01*
X166527204Y-136459622D01*
X166482355Y-136587794D01*
X166482354Y-136587798D01*
X166479500Y-136618232D01*
X166479500Y-139826758D01*
X166479501Y-139826773D01*
X166481498Y-139848069D01*
X166482354Y-139857200D01*
X166482355Y-139857205D01*
X166482356Y-139857206D01*
X166527204Y-139985377D01*
X166527207Y-139985384D01*
X166607849Y-140094650D01*
X166717115Y-140175292D01*
X166717122Y-140175295D01*
X166766163Y-140192455D01*
X166845300Y-140220146D01*
X166875733Y-140223000D01*
X168564266Y-140222999D01*
X168594700Y-140220146D01*
X168722883Y-140175293D01*
X168832150Y-140094650D01*
X168912793Y-139985383D01*
X168957646Y-139857200D01*
X168960500Y-139826767D01*
X168960499Y-136618234D01*
X168957646Y-136587800D01*
X168926816Y-136499692D01*
X168912795Y-136459622D01*
X168912792Y-136459615D01*
X168832150Y-136350349D01*
X168722884Y-136269707D01*
X168722877Y-136269704D01*
X168594705Y-136224855D01*
X168594701Y-136224854D01*
X168564267Y-136222000D01*
X168546500Y-136222000D01*
X168478379Y-136201998D01*
X168431886Y-136148342D01*
X168420500Y-136096000D01*
X168420500Y-133651010D01*
X168420500Y-133651007D01*
X168414486Y-133620775D01*
X168393580Y-133515672D01*
X168340775Y-133388189D01*
X168264114Y-133273457D01*
X157317227Y-122326570D01*
X157202495Y-122249909D01*
X157122105Y-122216610D01*
X157075015Y-122197105D01*
X157075012Y-122197104D01*
X156939681Y-122170184D01*
X156939678Y-122170184D01*
X156939677Y-122170184D01*
X153022149Y-122170184D01*
X152884163Y-122170184D01*
X152884160Y-122170184D01*
X152748827Y-122197104D01*
X152748824Y-122197105D01*
X152621345Y-122249909D01*
X152506614Y-122326569D01*
X152506608Y-122326574D01*
X152409046Y-122424136D01*
X152409041Y-122424142D01*
X152332381Y-122538873D01*
X152279577Y-122666352D01*
X152279576Y-122666355D01*
X152252656Y-122801688D01*
X148198874Y-122801688D01*
X148117205Y-122747119D01*
X147997158Y-122697394D01*
X147989725Y-122694315D01*
X147989722Y-122694314D01*
X147854391Y-122667394D01*
X147854388Y-122667394D01*
X147854387Y-122667394D01*
X147837097Y-122667394D01*
X147699111Y-122667394D01*
X147699108Y-122667394D01*
X147563775Y-122694314D01*
X147563772Y-122694315D01*
X147436293Y-122747119D01*
X147321562Y-122823779D01*
X147321556Y-122823784D01*
X147223994Y-122921346D01*
X147223989Y-122921352D01*
X147147329Y-123036083D01*
X147094525Y-123163562D01*
X147094524Y-123163565D01*
X147067604Y-123298898D01*
X143627055Y-123298898D01*
X142017047Y-121688890D01*
X142017043Y-121688886D01*
X141902311Y-121612225D01*
X141882454Y-121604000D01*
X141774831Y-121559421D01*
X141774828Y-121559420D01*
X141639497Y-121532500D01*
X141639494Y-121532500D01*
X141639493Y-121532500D01*
X139415392Y-121532500D01*
X139390810Y-121530079D01*
X139279680Y-121507973D01*
X139279677Y-121507973D01*
X139141689Y-121507973D01*
X139141685Y-121507973D01*
X139006354Y-121534893D01*
X139006351Y-121534894D01*
X138878872Y-121587698D01*
X138764141Y-121664358D01*
X138764135Y-121664363D01*
X138666573Y-121761925D01*
X138666568Y-121761931D01*
X138589908Y-121876662D01*
X138537104Y-122004141D01*
X138537103Y-122004144D01*
X138510183Y-122139475D01*
X137387632Y-122139475D01*
X135704047Y-120455890D01*
X135704043Y-120455886D01*
X135589311Y-120379225D01*
X135484471Y-120335799D01*
X135461831Y-120326421D01*
X135461828Y-120326420D01*
X135326497Y-120299500D01*
X135326494Y-120299500D01*
X135326493Y-120299500D01*
X134163728Y-120299500D01*
X134025740Y-120299500D01*
X134025736Y-120299500D01*
X133890405Y-120326420D01*
X133890402Y-120326421D01*
X133762923Y-120379225D01*
X133648192Y-120455885D01*
X133648186Y-120455890D01*
X131489309Y-122614767D01*
X131489304Y-122614773D01*
X131412644Y-122729504D01*
X131359840Y-122856983D01*
X131359839Y-122856986D01*
X131332919Y-122992317D01*
X131332919Y-123130312D01*
X131347278Y-123202495D01*
X131359839Y-123265643D01*
X131412644Y-123393126D01*
X131431320Y-123421077D01*
X131452535Y-123488828D01*
X131433752Y-123557295D01*
X131380935Y-123604739D01*
X131310853Y-123616096D01*
X131245756Y-123587761D01*
X131237460Y-123580173D01*
X130113177Y-122455890D01*
X130113176Y-122455889D01*
X130113173Y-122455886D01*
X129998441Y-122379225D01*
X129871330Y-122326574D01*
X129870961Y-122326421D01*
X129870958Y-122326420D01*
X129735627Y-122299500D01*
X129735624Y-122299500D01*
X129735623Y-122299500D01*
X125342347Y-122299500D01*
X125274226Y-122279498D01*
X125253252Y-122262595D01*
X123446547Y-120455890D01*
X123446543Y-120455886D01*
X123331811Y-120379225D01*
X123226971Y-120335799D01*
X123204331Y-120326421D01*
X123204328Y-120326420D01*
X123068997Y-120299500D01*
X123068994Y-120299500D01*
X122931006Y-120299500D01*
X122931002Y-120299500D01*
X122795671Y-120326420D01*
X122795668Y-120326421D01*
X122668189Y-120379225D01*
X122553458Y-120455885D01*
X122553452Y-120455890D01*
X122455890Y-120553452D01*
X122455885Y-120553458D01*
X122379225Y-120668189D01*
X122326421Y-120795668D01*
X122326420Y-120795671D01*
X122299500Y-120931002D01*
X113921659Y-120931002D01*
X113446547Y-120455890D01*
X113446543Y-120455886D01*
X113331811Y-120379225D01*
X113226971Y-120335799D01*
X113204331Y-120326421D01*
X113204328Y-120326420D01*
X113068997Y-120299500D01*
X113068994Y-120299500D01*
X112931006Y-120299500D01*
X112931002Y-120299500D01*
X112795671Y-120326420D01*
X112795668Y-120326421D01*
X112668189Y-120379225D01*
X112553458Y-120455885D01*
X112553452Y-120455890D01*
X112455890Y-120553452D01*
X112455885Y-120553458D01*
X112379225Y-120668189D01*
X112326421Y-120795668D01*
X112326420Y-120795671D01*
X112299500Y-120931002D01*
X106921659Y-120931002D01*
X106446547Y-120455890D01*
X106446543Y-120455886D01*
X106331811Y-120379225D01*
X106226971Y-120335799D01*
X106204331Y-120326421D01*
X106204328Y-120326420D01*
X106068997Y-120299500D01*
X106068994Y-120299500D01*
X106068993Y-120299500D01*
X104931007Y-120299500D01*
X104931004Y-120299500D01*
X104795671Y-120326420D01*
X104795668Y-120326421D01*
X104668189Y-120379225D01*
X104553458Y-120455885D01*
X104553452Y-120455890D01*
X104455890Y-120553452D01*
X104455885Y-120553458D01*
X104379225Y-120668189D01*
X104326421Y-120795668D01*
X104326420Y-120795671D01*
X104299500Y-120931004D01*
X93921661Y-120931004D01*
X93446547Y-120455890D01*
X93446543Y-120455886D01*
X93331811Y-120379225D01*
X93226971Y-120335799D01*
X93204331Y-120326421D01*
X93204328Y-120326420D01*
X93068997Y-120299500D01*
X93068994Y-120299500D01*
X92931006Y-120299500D01*
X92931002Y-120299500D01*
X92795671Y-120326420D01*
X92795668Y-120326421D01*
X92668189Y-120379225D01*
X92553458Y-120455885D01*
X92553452Y-120455890D01*
X92455890Y-120553452D01*
X92455885Y-120553458D01*
X92379225Y-120668189D01*
X92326421Y-120795668D01*
X92326420Y-120795671D01*
X92299500Y-120931002D01*
X85343381Y-120931002D01*
X85335484Y-120916541D01*
X85332605Y-120889758D01*
X85332605Y-120544718D01*
X85332604Y-120544714D01*
X85328030Y-120521717D01*
X85305685Y-120409382D01*
X85252880Y-120281899D01*
X85176219Y-120167168D01*
X85176218Y-120167167D01*
X85176214Y-120167162D01*
X85078652Y-120069600D01*
X85078646Y-120069595D01*
X85021568Y-120031457D01*
X84963916Y-119992935D01*
X84883526Y-119959636D01*
X84836436Y-119940131D01*
X84836433Y-119940130D01*
X84701100Y-119913210D01*
X84701098Y-119913210D01*
X84563112Y-119913210D01*
X84563109Y-119913210D01*
X84427776Y-119940130D01*
X84427773Y-119940131D01*
X84300294Y-119992935D01*
X84185563Y-120069595D01*
X84185557Y-120069600D01*
X84087995Y-120167162D01*
X84087992Y-120167167D01*
X84087991Y-120167168D01*
X84048266Y-120226621D01*
X84011330Y-120281899D01*
X83958526Y-120409378D01*
X83958525Y-120409381D01*
X83931605Y-120544714D01*
X73909470Y-120544714D01*
X73909470Y-120471138D01*
X73882550Y-120335803D01*
X73829745Y-120208320D01*
X73802248Y-120167168D01*
X73753084Y-120093588D01*
X73655513Y-119996017D01*
X73540781Y-119919356D01*
X73413303Y-119866553D01*
X73413301Y-119866552D01*
X73413298Y-119866551D01*
X73277965Y-119839631D01*
X73277963Y-119839631D01*
X73139977Y-119839631D01*
X73139974Y-119839631D01*
X73035062Y-119860499D01*
X73035062Y-119860500D01*
X73004641Y-119866551D01*
X73004639Y-119866552D01*
X73004635Y-119866553D01*
X72877159Y-119919356D01*
X72762428Y-119996016D01*
X72762427Y-119996017D01*
X72455884Y-120302559D01*
X72455883Y-120302561D01*
X72433674Y-120335801D01*
X72433673Y-120335803D01*
X72379225Y-120417290D01*
X72326421Y-120544769D01*
X72326420Y-120544772D01*
X72299500Y-120680105D01*
X65053519Y-120680105D01*
X65044893Y-120595675D01*
X64989157Y-120427474D01*
X64896134Y-120276660D01*
X64896129Y-120276654D01*
X64770845Y-120151370D01*
X64770839Y-120151365D01*
X64620025Y-120058342D01*
X64451821Y-120002606D01*
X64451818Y-120002605D01*
X64348016Y-119992000D01*
X64222433Y-119992000D01*
X64154312Y-119971998D01*
X64107819Y-119918342D01*
X64097715Y-119848068D01*
X64127209Y-119783488D01*
X64174215Y-119749591D01*
X64195098Y-119740941D01*
X64367155Y-119625977D01*
X64513477Y-119479655D01*
X64551832Y-119422252D01*
X64586595Y-119387487D01*
X64636543Y-119354114D01*
X66253252Y-117737405D01*
X66315564Y-117703380D01*
X66342347Y-117700500D01*
X156931007Y-117700500D01*
X158931007Y-117700500D01*
X165657653Y-117700500D01*
X165725774Y-117720502D01*
X165746748Y-117737405D01*
X167363457Y-119354114D01*
X167478189Y-119430775D01*
X167605672Y-119483580D01*
X167741006Y-119510500D01*
X167741007Y-119510500D01*
X169465178Y-119510500D01*
X169533299Y-119530502D01*
X169554268Y-119547400D01*
X169632845Y-119625977D01*
X169804902Y-119740941D01*
X169825785Y-119749591D01*
X169881066Y-119794140D01*
X169903487Y-119861503D01*
X169885929Y-119930294D01*
X169833966Y-119978673D01*
X169777567Y-119992000D01*
X169651983Y-119992000D01*
X169548181Y-120002605D01*
X169548178Y-120002606D01*
X169379974Y-120058342D01*
X169229160Y-120151365D01*
X169229154Y-120151370D01*
X169103870Y-120276654D01*
X169103865Y-120276660D01*
X169010842Y-120427474D01*
X168955106Y-120595678D01*
X168955105Y-120595681D01*
X168944500Y-120699483D01*
X168944500Y-121096000D01*
X169871797Y-121096000D01*
X169836575Y-121157007D01*
X169802500Y-121284174D01*
X169802500Y-121415826D01*
X169836575Y-121542993D01*
X169871797Y-121604000D01*
X168944500Y-121604000D01*
X168944500Y-122000516D01*
X168955105Y-122104318D01*
X168955106Y-122104321D01*
X169010842Y-122272525D01*
X169103865Y-122423339D01*
X169103870Y-122423345D01*
X169229154Y-122548629D01*
X169229160Y-122548634D01*
X169379974Y-122641657D01*
X169548178Y-122697393D01*
X169548181Y-122697394D01*
X169651983Y-122707999D01*
X169651983Y-122708000D01*
X170048500Y-122708000D01*
X170048500Y-121780702D01*
X170109507Y-121815925D01*
X170236674Y-121850000D01*
X170368326Y-121850000D01*
X170495493Y-121815925D01*
X170556500Y-121780702D01*
X170556500Y-122708000D01*
X170953017Y-122708000D01*
X170953016Y-122707999D01*
X171056818Y-122697394D01*
X171056821Y-122697393D01*
X171225025Y-122641657D01*
X171375839Y-122548634D01*
X171375845Y-122548629D01*
X171501129Y-122423345D01*
X171501136Y-122423336D01*
X171538297Y-122363088D01*
X171609267Y-122226926D01*
X171617416Y-122202335D01*
X171657829Y-122143963D01*
X171711742Y-122121546D01*
X172358341Y-121474947D01*
X172376575Y-121542993D01*
X172442401Y-121657007D01*
X172535493Y-121750099D01*
X172649507Y-121815925D01*
X172717551Y-121834157D01*
X172078331Y-122473378D01*
X172130749Y-122511463D01*
X172130751Y-122511464D01*
X172321207Y-122608506D01*
X172321213Y-122608509D01*
X172524496Y-122674559D01*
X172735626Y-122708000D01*
X172949374Y-122708000D01*
X173160503Y-122674559D01*
X173363786Y-122608509D01*
X173363792Y-122608506D01*
X173554250Y-122511463D01*
X173606667Y-122473378D01*
X173606667Y-122473376D01*
X172967448Y-121834157D01*
X173035493Y-121815925D01*
X173149507Y-121750099D01*
X173242599Y-121657007D01*
X173308425Y-121542993D01*
X173326657Y-121474948D01*
X173965876Y-122114167D01*
X173965878Y-122114167D01*
X174003963Y-122061750D01*
X174101006Y-121871292D01*
X174101009Y-121871286D01*
X174167059Y-121668003D01*
X174200500Y-121456873D01*
X174200500Y-121243126D01*
X174167059Y-121031996D01*
X174101009Y-120828713D01*
X174101006Y-120828707D01*
X174003964Y-120638251D01*
X174003963Y-120638249D01*
X173965878Y-120585831D01*
X173326657Y-121225051D01*
X173308425Y-121157007D01*
X173242599Y-121042993D01*
X173149507Y-120949901D01*
X173035493Y-120884075D01*
X172967447Y-120865841D01*
X173606668Y-120226621D01*
X173606667Y-120226620D01*
X173554250Y-120188536D01*
X173554248Y-120188535D01*
X173363792Y-120091493D01*
X173363786Y-120091490D01*
X173201062Y-120038618D01*
X173142456Y-119998544D01*
X173114819Y-119933148D01*
X173126926Y-119863191D01*
X173174932Y-119810885D01*
X173191772Y-119802379D01*
X173340098Y-119740941D01*
X173512155Y-119625977D01*
X173658477Y-119479655D01*
X173773441Y-119307598D01*
X173852630Y-119116420D01*
X173893000Y-118913465D01*
X173893000Y-118706535D01*
X173852630Y-118503580D01*
X173773441Y-118312402D01*
X173658477Y-118140345D01*
X173658475Y-118140343D01*
X173658470Y-118140337D01*
X173512162Y-117994029D01*
X173512156Y-117994024D01*
X173512155Y-117994023D01*
X173340098Y-117879059D01*
X173176925Y-117811470D01*
X173148925Y-117799872D01*
X173148920Y-117799870D01*
X172945967Y-117759500D01*
X172945965Y-117759500D01*
X172739035Y-117759500D01*
X172739032Y-117759500D01*
X172536079Y-117799870D01*
X172536074Y-117799872D01*
X172344902Y-117879059D01*
X172172843Y-117994024D01*
X172133558Y-118033309D01*
X172094271Y-118072596D01*
X172031962Y-118106620D01*
X172005178Y-118109500D01*
X171139822Y-118109500D01*
X171071701Y-118089498D01*
X171050731Y-118072599D01*
X170972155Y-117994023D01*
X170800098Y-117879059D01*
X170636925Y-117811470D01*
X170608925Y-117799872D01*
X170608920Y-117799870D01*
X170405967Y-117759500D01*
X170405965Y-117759500D01*
X170199035Y-117759500D01*
X170199032Y-117759500D01*
X169996079Y-117799870D01*
X169996074Y-117799872D01*
X169804902Y-117879059D01*
X169632843Y-117994024D01*
X169593558Y-118033309D01*
X169554271Y-118072596D01*
X169491962Y-118106620D01*
X169465178Y-118109500D01*
X168152347Y-118109500D01*
X168084226Y-118089498D01*
X168063252Y-118072595D01*
X166446547Y-116455890D01*
X166446543Y-116455886D01*
X166331811Y-116379225D01*
X166251421Y-116345926D01*
X166204331Y-116326421D01*
X166204328Y-116326420D01*
X166068997Y-116299500D01*
X166068994Y-116299500D01*
X166068993Y-116299500D01*
X159068993Y-116299500D01*
X157303557Y-116299500D01*
X157294731Y-116296908D01*
X157285625Y-116298218D01*
X157261199Y-116287062D01*
X157235436Y-116279498D01*
X157229411Y-116272544D01*
X157221045Y-116268724D01*
X157206530Y-116246138D01*
X157188943Y-116225842D01*
X157186618Y-116215155D01*
X157182661Y-116208998D01*
X157177557Y-116173500D01*
X157177557Y-116005529D01*
X157197559Y-115937408D01*
X157214457Y-115916438D01*
X157271171Y-115859725D01*
X157347832Y-115744994D01*
X157400637Y-115617511D01*
X157427557Y-115482176D01*
X157427557Y-115344190D01*
X157400637Y-115208855D01*
X157347832Y-115081372D01*
X157271171Y-114966641D01*
X157271166Y-114966635D01*
X157173604Y-114869073D01*
X157173598Y-114869068D01*
X157133906Y-114842547D01*
X157058868Y-114792408D01*
X156972799Y-114756757D01*
X156931388Y-114739604D01*
X156931385Y-114739603D01*
X156796052Y-114712683D01*
X156796050Y-114712683D01*
X156658064Y-114712683D01*
X156658061Y-114712683D01*
X156522728Y-114739603D01*
X156522725Y-114739604D01*
X156395246Y-114792408D01*
X156280515Y-114869068D01*
X156280509Y-114869073D01*
X156182947Y-114966635D01*
X156182942Y-114966641D01*
X156106282Y-115081372D01*
X156053478Y-115208851D01*
X156053477Y-115208854D01*
X156026557Y-115344187D01*
X156026557Y-115344190D01*
X156026557Y-115482176D01*
X156053477Y-115617511D01*
X156106282Y-115744994D01*
X156182943Y-115859725D01*
X156239653Y-115916435D01*
X156254597Y-115943803D01*
X156271453Y-115970031D01*
X156272358Y-115976330D01*
X156273677Y-115978745D01*
X156276557Y-116005529D01*
X156276557Y-116173500D01*
X156256555Y-116241621D01*
X156202899Y-116288114D01*
X156150557Y-116299500D01*
X65931002Y-116299500D01*
X65795671Y-116326420D01*
X65795668Y-116326421D01*
X65668189Y-116379225D01*
X65553455Y-116455887D01*
X64831076Y-117178266D01*
X64768764Y-117212291D01*
X64697948Y-117207226D01*
X64641113Y-117164679D01*
X64616302Y-117098159D01*
X64631393Y-117028785D01*
X64640040Y-117015116D01*
X64724260Y-116899199D01*
X64810047Y-116730832D01*
X64868440Y-116551118D01*
X64898000Y-116364481D01*
X64898000Y-115056500D01*
X64918002Y-114988379D01*
X64971658Y-114941886D01*
X65024000Y-114930500D01*
X67364478Y-114930500D01*
X67364481Y-114930500D01*
X67551118Y-114900940D01*
X67730832Y-114842547D01*
X67899199Y-114756760D01*
X68052074Y-114645690D01*
X68460358Y-114237404D01*
X68522671Y-114203380D01*
X68549454Y-114200500D01*
X81905519Y-114200500D01*
X164450546Y-114200500D01*
X164518667Y-114220502D01*
X164539641Y-114237405D01*
X166217920Y-115915685D01*
X166217923Y-115915687D01*
X166217926Y-115915690D01*
X166370801Y-116026760D01*
X166539168Y-116112547D01*
X166718882Y-116170940D01*
X166905518Y-116200500D01*
X166905519Y-116200500D01*
X168976000Y-116200500D01*
X169044121Y-116220502D01*
X169090614Y-116274158D01*
X169102000Y-116326500D01*
X169102000Y-116364481D01*
X169116478Y-116455890D01*
X169131561Y-116551123D01*
X169189951Y-116730828D01*
X169275742Y-116899202D01*
X169386811Y-117052075D01*
X169520424Y-117185688D01*
X169620849Y-117258651D01*
X169673301Y-117296760D01*
X169841668Y-117382547D01*
X170021382Y-117440940D01*
X170208019Y-117470500D01*
X170208022Y-117470500D01*
X172936978Y-117470500D01*
X172936981Y-117470500D01*
X173123618Y-117440940D01*
X173303332Y-117382547D01*
X173471699Y-117296760D01*
X173624573Y-117185690D01*
X173758190Y-117052073D01*
X173869260Y-116899199D01*
X173955047Y-116730832D01*
X174013440Y-116551118D01*
X174043000Y-116364481D01*
X174043000Y-113635519D01*
X174013440Y-113448882D01*
X173955047Y-113269168D01*
X173869260Y-113100801D01*
X173758190Y-112947927D01*
X173758188Y-112947924D01*
X173624575Y-112814311D01*
X173471702Y-112703242D01*
X173471701Y-112703241D01*
X173471699Y-112703240D01*
X173303332Y-112617453D01*
X173303331Y-112617452D01*
X173303328Y-112617451D01*
X173187550Y-112579833D01*
X173128944Y-112539759D01*
X173101307Y-112474363D01*
X173113414Y-112404406D01*
X173161420Y-112352100D01*
X173187550Y-112340167D01*
X173303332Y-112302547D01*
X173471699Y-112216760D01*
X173624573Y-112105690D01*
X173758190Y-111972073D01*
X173869260Y-111819199D01*
X173955047Y-111650832D01*
X174013440Y-111471118D01*
X174043000Y-111284481D01*
X174043000Y-108555519D01*
X174013440Y-108368882D01*
X173955047Y-108189168D01*
X173869260Y-108020801D01*
X173758190Y-107867927D01*
X173758188Y-107867924D01*
X173624575Y-107734311D01*
X173471702Y-107623242D01*
X173471701Y-107623241D01*
X173471699Y-107623240D01*
X173303332Y-107537453D01*
X173303331Y-107537452D01*
X173303328Y-107537451D01*
X173123623Y-107479061D01*
X173123619Y-107479060D01*
X173123618Y-107479060D01*
X172936981Y-107449500D01*
X170396982Y-107449500D01*
X170208019Y-107449500D01*
X170021382Y-107479060D01*
X170021376Y-107479061D01*
X169841671Y-107537451D01*
X169673297Y-107623242D01*
X169520429Y-107734308D01*
X169492057Y-107762679D01*
X169429743Y-107796702D01*
X169401931Y-107798594D01*
X169401931Y-107799500D01*
X169396981Y-107799500D01*
X165094481Y-107799500D01*
X147094481Y-107799500D01*
X76094481Y-107799500D01*
X65905519Y-107799500D01*
X65718882Y-107829060D01*
X65718876Y-107829061D01*
X65539171Y-107887451D01*
X65370797Y-107973242D01*
X65217925Y-108084310D01*
X65112844Y-108189391D01*
X65050532Y-108223416D01*
X64979716Y-108218350D01*
X64934653Y-108189390D01*
X64718505Y-107973242D01*
X64479574Y-107734310D01*
X64326699Y-107623240D01*
X64158332Y-107537453D01*
X64158331Y-107537452D01*
X64158328Y-107537451D01*
X63978623Y-107479061D01*
X63978619Y-107479060D01*
X63978618Y-107479060D01*
X63791981Y-107449500D01*
X61251981Y-107449500D01*
X61063019Y-107449500D01*
X60876382Y-107479060D01*
X60876376Y-107479061D01*
X60696671Y-107537451D01*
X60528297Y-107623242D01*
X60375424Y-107734311D01*
X60241811Y-107867924D01*
X60130742Y-108020797D01*
X60044951Y-108189171D01*
X59986561Y-108368876D01*
X59986560Y-108368881D01*
X59986560Y-108368882D01*
X59957000Y-108555519D01*
X59957000Y-111284481D01*
X59986560Y-111471118D01*
X59986561Y-111471123D01*
X60044951Y-111650828D01*
X60044952Y-111650831D01*
X60044953Y-111650832D01*
X60118415Y-111795010D01*
X60130742Y-111819202D01*
X60241811Y-111972075D01*
X60375424Y-112105688D01*
X60375427Y-112105690D01*
X60528301Y-112216760D01*
X60696668Y-112302547D01*
X60812450Y-112340167D01*
X60871055Y-112380241D01*
X60898692Y-112445637D01*
X60886585Y-112515594D01*
X60838579Y-112567900D01*
X60812450Y-112579833D01*
X60696669Y-112617452D01*
X60528297Y-112703242D01*
X60375424Y-112814311D01*
X60241811Y-112947924D01*
X60130742Y-113100797D01*
X60044951Y-113269171D01*
X59986561Y-113448876D01*
X59986560Y-113448881D01*
X59986560Y-113448882D01*
X59957000Y-113635519D01*
X59957000Y-116175519D01*
X59957000Y-116364481D01*
X59971478Y-116455890D01*
X59986561Y-116551123D01*
X60044951Y-116730828D01*
X60130742Y-116899202D01*
X60241811Y-117052075D01*
X60375424Y-117185688D01*
X60475849Y-117258651D01*
X60528301Y-117296760D01*
X60696668Y-117382547D01*
X60876382Y-117440940D01*
X61063019Y-117470500D01*
X61063022Y-117470500D01*
X63791978Y-117470500D01*
X63791981Y-117470500D01*
X63978618Y-117440940D01*
X64158332Y-117382547D01*
X64326699Y-117296760D01*
X64442610Y-117212545D01*
X64509476Y-117188687D01*
X64578627Y-117204766D01*
X64628108Y-117255680D01*
X64642208Y-117325262D01*
X64616450Y-117391422D01*
X64605765Y-117403576D01*
X64208799Y-117800542D01*
X64146487Y-117834568D01*
X64075672Y-117829503D01*
X64071487Y-117827856D01*
X64003929Y-117799873D01*
X64003920Y-117799870D01*
X63800967Y-117759500D01*
X63800965Y-117759500D01*
X63594035Y-117759500D01*
X63594032Y-117759500D01*
X63391079Y-117799870D01*
X63391074Y-117799872D01*
X63199902Y-117879059D01*
X63027843Y-117994024D01*
X62988558Y-118033309D01*
X62949271Y-118072596D01*
X62886962Y-118106620D01*
X62860178Y-118109500D01*
X61994822Y-118109500D01*
X61926701Y-118089498D01*
X61905731Y-118072599D01*
X61827155Y-117994023D01*
X61655098Y-117879059D01*
X61491925Y-117811470D01*
X61463925Y-117799872D01*
X61463920Y-117799870D01*
X61260967Y-117759500D01*
X61260965Y-117759500D01*
X61054035Y-117759500D01*
X61054032Y-117759500D01*
X60851079Y-117799870D01*
X60851074Y-117799872D01*
X60659902Y-117879059D01*
X60487843Y-117994024D01*
X60487837Y-117994029D01*
X60341529Y-118140337D01*
X60341524Y-118140343D01*
X60226559Y-118312402D01*
X60147372Y-118503574D01*
X60147370Y-118503579D01*
X60107000Y-118706532D01*
X60107000Y-118706535D01*
X60107000Y-118913465D01*
X60147370Y-119116420D01*
X60226559Y-119307598D01*
X60341523Y-119479655D01*
X60341524Y-119479656D01*
X60341529Y-119479662D01*
X60487837Y-119625970D01*
X60487843Y-119625975D01*
X60487845Y-119625977D01*
X60659902Y-119740941D01*
X60808219Y-119802376D01*
X60863500Y-119846924D01*
X60885921Y-119914288D01*
X60868363Y-119983079D01*
X60816401Y-120031457D01*
X60798938Y-120038618D01*
X60636210Y-120091492D01*
X60636207Y-120091493D01*
X60445753Y-120188534D01*
X60393331Y-120226621D01*
X60393331Y-120226622D01*
X61032551Y-120865842D01*
X60964507Y-120884075D01*
X60850493Y-120949901D01*
X60757401Y-121042993D01*
X60691575Y-121157007D01*
X60673342Y-121225051D01*
X60034122Y-120585831D01*
X60034121Y-120585831D01*
X59996034Y-120638253D01*
X59898993Y-120828707D01*
X59898990Y-120828713D01*
X59832940Y-121031996D01*
X59799500Y-121243126D01*
X56244844Y-121243126D01*
X56038515Y-91544013D01*
X56058042Y-91475760D01*
X56111374Y-91428896D01*
X56181576Y-91418304D01*
X56244444Y-91445744D01*
X56288481Y-91481884D01*
X56591405Y-91684291D01*
X56912713Y-91856034D01*
X57249301Y-91995454D01*
X57249305Y-91995455D01*
X57597956Y-92101217D01*
X57955261Y-92172288D01*
X57955281Y-92172291D01*
X58317831Y-92207999D01*
X58317847Y-92208000D01*
X58682153Y-92208000D01*
X58682168Y-92207999D01*
X59044718Y-92172291D01*
X59044738Y-92172288D01*
X59402043Y-92101217D01*
X59750694Y-91995455D01*
X59750698Y-91995454D01*
X60087286Y-91856034D01*
X60408594Y-91684291D01*
X60711508Y-91481891D01*
X60711514Y-91481886D01*
X60937343Y-91296552D01*
X59788119Y-90147328D01*
X59947056Y-90147328D01*
X59947056Y-90246784D01*
X59985116Y-90338670D01*
X60055442Y-90408996D01*
X60147328Y-90447056D01*
X60246784Y-90447056D01*
X60338670Y-90408996D01*
X60408996Y-90338670D01*
X60447056Y-90246784D01*
X60447056Y-90147328D01*
X60408996Y-90055442D01*
X60338670Y-89985116D01*
X60246784Y-89947056D01*
X60147328Y-89947056D01*
X60055442Y-89985116D01*
X59985116Y-90055442D01*
X59947056Y-90147328D01*
X59788119Y-90147328D01*
X59437422Y-89796631D01*
X59542330Y-89720412D01*
X59720412Y-89542330D01*
X59796631Y-89437422D01*
X61296552Y-90937343D01*
X61310891Y-90919871D01*
X92899500Y-90919871D01*
X92899500Y-92635129D01*
X92930045Y-92827984D01*
X92930046Y-92827989D01*
X92990381Y-93013682D01*
X92990383Y-93013687D01*
X93079029Y-93187664D01*
X93193799Y-93345632D01*
X93193801Y-93345634D01*
X93193803Y-93345637D01*
X93331862Y-93483696D01*
X93331865Y-93483698D01*
X93331868Y-93483701D01*
X93489836Y-93598471D01*
X93663813Y-93687117D01*
X93849510Y-93747453D01*
X93849511Y-93747453D01*
X93849516Y-93747455D01*
X94042371Y-93778000D01*
X94042374Y-93778000D01*
X94237626Y-93778000D01*
X94237629Y-93778000D01*
X94430484Y-93747455D01*
X94616187Y-93687117D01*
X94790164Y-93598471D01*
X94948132Y-93483701D01*
X95086201Y-93345632D01*
X95200971Y-93187664D01*
X95289617Y-93013687D01*
X95349955Y-92827984D01*
X95380500Y-92635129D01*
X95380500Y-90919871D01*
X97979500Y-90919871D01*
X97979500Y-92635129D01*
X98010045Y-92827984D01*
X98010046Y-92827989D01*
X98070381Y-93013682D01*
X98070383Y-93013687D01*
X98159029Y-93187664D01*
X98273799Y-93345632D01*
X98273801Y-93345634D01*
X98273803Y-93345637D01*
X98411862Y-93483696D01*
X98411865Y-93483698D01*
X98411868Y-93483701D01*
X98569836Y-93598471D01*
X98743813Y-93687117D01*
X98929510Y-93747453D01*
X98929511Y-93747453D01*
X98929516Y-93747455D01*
X99122371Y-93778000D01*
X99122374Y-93778000D01*
X99317626Y-93778000D01*
X99317629Y-93778000D01*
X99510484Y-93747455D01*
X99696187Y-93687117D01*
X99870164Y-93598471D01*
X100028132Y-93483701D01*
X100166201Y-93345632D01*
X100280971Y-93187664D01*
X100369617Y-93013687D01*
X100429955Y-92827984D01*
X100460500Y-92635129D01*
X100460500Y-90919871D01*
X103059500Y-90919871D01*
X103059500Y-92635129D01*
X103090045Y-92827984D01*
X103090046Y-92827989D01*
X103150381Y-93013682D01*
X103150383Y-93013687D01*
X103239029Y-93187664D01*
X103353799Y-93345632D01*
X103353801Y-93345634D01*
X103353803Y-93345637D01*
X103491862Y-93483696D01*
X103491865Y-93483698D01*
X103491868Y-93483701D01*
X103649836Y-93598471D01*
X103823813Y-93687117D01*
X104009510Y-93747453D01*
X104009511Y-93747453D01*
X104009516Y-93747455D01*
X104202371Y-93778000D01*
X104202374Y-93778000D01*
X104397626Y-93778000D01*
X104397629Y-93778000D01*
X104590484Y-93747455D01*
X104776187Y-93687117D01*
X104950164Y-93598471D01*
X105108132Y-93483701D01*
X105246201Y-93345632D01*
X105360971Y-93187664D01*
X105449617Y-93013687D01*
X105509955Y-92827984D01*
X105540500Y-92635129D01*
X105540500Y-90919871D01*
X108139500Y-90919871D01*
X108139500Y-92635129D01*
X108170045Y-92827984D01*
X108170046Y-92827989D01*
X108230381Y-93013682D01*
X108230383Y-93013687D01*
X108319029Y-93187664D01*
X108433799Y-93345632D01*
X108433801Y-93345634D01*
X108433803Y-93345637D01*
X108571862Y-93483696D01*
X108571865Y-93483698D01*
X108571868Y-93483701D01*
X108729836Y-93598471D01*
X108903813Y-93687117D01*
X109089510Y-93747453D01*
X109089511Y-93747453D01*
X109089516Y-93747455D01*
X109282371Y-93778000D01*
X109282374Y-93778000D01*
X109477626Y-93778000D01*
X109477629Y-93778000D01*
X109670484Y-93747455D01*
X109856187Y-93687117D01*
X110030164Y-93598471D01*
X110188132Y-93483701D01*
X110326201Y-93345632D01*
X110440971Y-93187664D01*
X110529617Y-93013687D01*
X110589955Y-92827984D01*
X110620500Y-92635129D01*
X110620500Y-90919871D01*
X113219500Y-90919871D01*
X113219500Y-92635129D01*
X113250045Y-92827984D01*
X113250046Y-92827989D01*
X113310381Y-93013682D01*
X113310383Y-93013687D01*
X113399029Y-93187664D01*
X113513799Y-93345632D01*
X113513801Y-93345634D01*
X113513803Y-93345637D01*
X113651862Y-93483696D01*
X113651865Y-93483698D01*
X113651868Y-93483701D01*
X113809836Y-93598471D01*
X113983813Y-93687117D01*
X114169510Y-93747453D01*
X114169511Y-93747453D01*
X114169516Y-93747455D01*
X114362371Y-93778000D01*
X114362374Y-93778000D01*
X114557626Y-93778000D01*
X114557629Y-93778000D01*
X114750484Y-93747455D01*
X114936187Y-93687117D01*
X115110164Y-93598471D01*
X115268132Y-93483701D01*
X115406201Y-93345632D01*
X115520971Y-93187664D01*
X115609617Y-93013687D01*
X115669955Y-92827984D01*
X115700500Y-92635129D01*
X115700500Y-90919871D01*
X118299500Y-90919871D01*
X118299500Y-92635129D01*
X118330045Y-92827984D01*
X118330046Y-92827989D01*
X118390381Y-93013682D01*
X118390383Y-93013687D01*
X118479029Y-93187664D01*
X118593799Y-93345632D01*
X118593801Y-93345634D01*
X118593803Y-93345637D01*
X118731862Y-93483696D01*
X118731865Y-93483698D01*
X118731868Y-93483701D01*
X118889836Y-93598471D01*
X119063813Y-93687117D01*
X119249510Y-93747453D01*
X119249511Y-93747453D01*
X119249516Y-93747455D01*
X119442371Y-93778000D01*
X119442374Y-93778000D01*
X119637626Y-93778000D01*
X119637629Y-93778000D01*
X119830484Y-93747455D01*
X120016187Y-93687117D01*
X120190164Y-93598471D01*
X120348132Y-93483701D01*
X120486201Y-93345632D01*
X120600971Y-93187664D01*
X120689617Y-93013687D01*
X120749955Y-92827984D01*
X120780500Y-92635129D01*
X120780500Y-90919871D01*
X123379500Y-90919871D01*
X123379500Y-92635129D01*
X123410045Y-92827984D01*
X123410046Y-92827989D01*
X123470381Y-93013682D01*
X123470383Y-93013687D01*
X123559029Y-93187664D01*
X123673799Y-93345632D01*
X123673801Y-93345634D01*
X123673803Y-93345637D01*
X123811862Y-93483696D01*
X123811865Y-93483698D01*
X123811868Y-93483701D01*
X123969836Y-93598471D01*
X124143813Y-93687117D01*
X124329510Y-93747453D01*
X124329511Y-93747453D01*
X124329516Y-93747455D01*
X124522371Y-93778000D01*
X124522374Y-93778000D01*
X124717626Y-93778000D01*
X124717629Y-93778000D01*
X124910484Y-93747455D01*
X125096187Y-93687117D01*
X125270164Y-93598471D01*
X125428132Y-93483701D01*
X125566201Y-93345632D01*
X125680971Y-93187664D01*
X125769617Y-93013687D01*
X125829955Y-92827984D01*
X125860500Y-92635129D01*
X125860500Y-90919871D01*
X128459500Y-90919871D01*
X128459500Y-92635129D01*
X128490045Y-92827984D01*
X128490046Y-92827989D01*
X128550381Y-93013682D01*
X128550383Y-93013687D01*
X128639029Y-93187664D01*
X128753799Y-93345632D01*
X128753801Y-93345634D01*
X128753803Y-93345637D01*
X128891862Y-93483696D01*
X128891865Y-93483698D01*
X128891868Y-93483701D01*
X129049836Y-93598471D01*
X129223813Y-93687117D01*
X129409510Y-93747453D01*
X129409511Y-93747453D01*
X129409516Y-93747455D01*
X129602371Y-93778000D01*
X129602374Y-93778000D01*
X129797626Y-93778000D01*
X129797629Y-93778000D01*
X129990484Y-93747455D01*
X130176187Y-93687117D01*
X130350164Y-93598471D01*
X130508132Y-93483701D01*
X130646201Y-93345632D01*
X130760971Y-93187664D01*
X130849617Y-93013687D01*
X130909955Y-92827984D01*
X130940500Y-92635129D01*
X130940500Y-90919871D01*
X133539500Y-90919871D01*
X133539500Y-92635129D01*
X133570045Y-92827984D01*
X133570046Y-92827989D01*
X133630381Y-93013682D01*
X133630383Y-93013687D01*
X133719029Y-93187664D01*
X133833799Y-93345632D01*
X133833801Y-93345634D01*
X133833803Y-93345637D01*
X133971862Y-93483696D01*
X133971865Y-93483698D01*
X133971868Y-93483701D01*
X134129836Y-93598471D01*
X134303813Y-93687117D01*
X134489510Y-93747453D01*
X134489511Y-93747453D01*
X134489516Y-93747455D01*
X134682371Y-93778000D01*
X134682374Y-93778000D01*
X134877626Y-93778000D01*
X134877629Y-93778000D01*
X135070484Y-93747455D01*
X135256187Y-93687117D01*
X135430164Y-93598471D01*
X135588132Y-93483701D01*
X135726201Y-93345632D01*
X135840971Y-93187664D01*
X135929617Y-93013687D01*
X135989955Y-92827984D01*
X136020500Y-92635129D01*
X136020500Y-90919871D01*
X135989955Y-90727016D01*
X135929617Y-90541313D01*
X135840971Y-90367336D01*
X135751614Y-90244346D01*
X135726203Y-90209370D01*
X135726196Y-90209362D01*
X135690066Y-90173232D01*
X138619500Y-90173232D01*
X138619500Y-93381758D01*
X138619501Y-93381773D01*
X138621498Y-93403069D01*
X138622354Y-93412200D01*
X138622355Y-93412205D01*
X138622356Y-93412206D01*
X138667204Y-93540377D01*
X138667207Y-93540384D01*
X138747849Y-93649650D01*
X138857115Y-93730292D01*
X138857122Y-93730295D01*
X138906163Y-93747455D01*
X138985300Y-93775146D01*
X139015733Y-93778000D01*
X140704266Y-93777999D01*
X140734700Y-93775146D01*
X140862883Y-93730293D01*
X140972150Y-93649650D01*
X141052793Y-93540383D01*
X141097646Y-93412200D01*
X141100500Y-93381767D01*
X141100499Y-90173234D01*
X141097646Y-90142800D01*
X141052793Y-90014617D01*
X141052792Y-90014615D01*
X140972150Y-89905349D01*
X140862884Y-89824707D01*
X140862877Y-89824704D01*
X140734705Y-89779855D01*
X140734701Y-89779854D01*
X140724555Y-89778902D01*
X140704267Y-89777000D01*
X140704265Y-89777000D01*
X139015741Y-89777000D01*
X139015726Y-89777001D01*
X138991386Y-89779283D01*
X138985300Y-89779854D01*
X138985296Y-89779855D01*
X138985293Y-89779856D01*
X138857122Y-89824704D01*
X138857115Y-89824707D01*
X138747849Y-89905349D01*
X138667207Y-90014615D01*
X138667204Y-90014622D01*
X138622355Y-90142794D01*
X138622354Y-90142798D01*
X138619500Y-90173232D01*
X135690066Y-90173232D01*
X135588137Y-90071303D01*
X135588134Y-90071301D01*
X135588132Y-90071299D01*
X135430164Y-89956529D01*
X135256187Y-89867883D01*
X135256184Y-89867882D01*
X135256182Y-89867881D01*
X135070487Y-89807546D01*
X135070491Y-89807546D01*
X135034588Y-89801859D01*
X134877629Y-89777000D01*
X134682371Y-89777000D01*
X134489516Y-89807545D01*
X134489510Y-89807546D01*
X134303817Y-89867881D01*
X134303811Y-89867884D01*
X134129832Y-89956531D01*
X133971865Y-90071301D01*
X133971862Y-90071303D01*
X133833803Y-90209362D01*
X133833801Y-90209365D01*
X133719031Y-90367332D01*
X133630384Y-90541311D01*
X133630381Y-90541317D01*
X133570046Y-90727010D01*
X133570045Y-90727015D01*
X133570045Y-90727016D01*
X133539500Y-90919871D01*
X130940500Y-90919871D01*
X130909955Y-90727016D01*
X130849617Y-90541313D01*
X130760971Y-90367336D01*
X130646201Y-90209368D01*
X130646198Y-90209365D01*
X130646196Y-90209362D01*
X130508137Y-90071303D01*
X130508134Y-90071301D01*
X130508132Y-90071299D01*
X130350164Y-89956529D01*
X130176187Y-89867883D01*
X130176184Y-89867882D01*
X130176182Y-89867881D01*
X129990487Y-89807546D01*
X129990491Y-89807546D01*
X129954588Y-89801859D01*
X129797629Y-89777000D01*
X129602371Y-89777000D01*
X129409516Y-89807545D01*
X129409510Y-89807546D01*
X129223817Y-89867881D01*
X129223811Y-89867884D01*
X129049832Y-89956531D01*
X128891865Y-90071301D01*
X128891862Y-90071303D01*
X128753803Y-90209362D01*
X128753801Y-90209365D01*
X128639031Y-90367332D01*
X128550384Y-90541311D01*
X128550381Y-90541317D01*
X128490046Y-90727010D01*
X128490045Y-90727015D01*
X128490045Y-90727016D01*
X128459500Y-90919871D01*
X125860500Y-90919871D01*
X125829955Y-90727016D01*
X125769617Y-90541313D01*
X125680971Y-90367336D01*
X125566201Y-90209368D01*
X125566198Y-90209365D01*
X125566196Y-90209362D01*
X125428137Y-90071303D01*
X125428134Y-90071301D01*
X125428132Y-90071299D01*
X125270164Y-89956529D01*
X125096187Y-89867883D01*
X125096184Y-89867882D01*
X125096182Y-89867881D01*
X124910487Y-89807546D01*
X124910491Y-89807546D01*
X124874588Y-89801859D01*
X124717629Y-89777000D01*
X124522371Y-89777000D01*
X124329516Y-89807545D01*
X124329510Y-89807546D01*
X124143817Y-89867881D01*
X124143811Y-89867884D01*
X123969832Y-89956531D01*
X123811865Y-90071301D01*
X123811862Y-90071303D01*
X123673803Y-90209362D01*
X123673801Y-90209365D01*
X123559031Y-90367332D01*
X123470384Y-90541311D01*
X123470381Y-90541317D01*
X123410046Y-90727010D01*
X123410045Y-90727015D01*
X123410045Y-90727016D01*
X123379500Y-90919871D01*
X120780500Y-90919871D01*
X120749955Y-90727016D01*
X120689617Y-90541313D01*
X120600971Y-90367336D01*
X120486201Y-90209368D01*
X120486198Y-90209365D01*
X120486196Y-90209362D01*
X120348137Y-90071303D01*
X120348134Y-90071301D01*
X120348132Y-90071299D01*
X120190164Y-89956529D01*
X120016187Y-89867883D01*
X120016184Y-89867882D01*
X120016182Y-89867881D01*
X119830487Y-89807546D01*
X119830491Y-89807546D01*
X119794588Y-89801859D01*
X119637629Y-89777000D01*
X119442371Y-89777000D01*
X119249516Y-89807545D01*
X119249510Y-89807546D01*
X119063817Y-89867881D01*
X119063811Y-89867884D01*
X118889832Y-89956531D01*
X118731865Y-90071301D01*
X118731862Y-90071303D01*
X118593803Y-90209362D01*
X118593801Y-90209365D01*
X118479031Y-90367332D01*
X118390384Y-90541311D01*
X118390381Y-90541317D01*
X118330046Y-90727010D01*
X118330045Y-90727015D01*
X118330045Y-90727016D01*
X118299500Y-90919871D01*
X115700500Y-90919871D01*
X115669955Y-90727016D01*
X115609617Y-90541313D01*
X115520971Y-90367336D01*
X115406201Y-90209368D01*
X115406198Y-90209365D01*
X115406196Y-90209362D01*
X115268137Y-90071303D01*
X115268134Y-90071301D01*
X115268132Y-90071299D01*
X115110164Y-89956529D01*
X114936187Y-89867883D01*
X114936184Y-89867882D01*
X114936182Y-89867881D01*
X114750487Y-89807546D01*
X114750491Y-89807546D01*
X114714588Y-89801859D01*
X114557629Y-89777000D01*
X114362371Y-89777000D01*
X114169516Y-89807545D01*
X114169510Y-89807546D01*
X113983817Y-89867881D01*
X113983811Y-89867884D01*
X113809832Y-89956531D01*
X113651865Y-90071301D01*
X113651862Y-90071303D01*
X113513803Y-90209362D01*
X113513801Y-90209365D01*
X113399031Y-90367332D01*
X113310384Y-90541311D01*
X113310381Y-90541317D01*
X113250046Y-90727010D01*
X113250045Y-90727015D01*
X113250045Y-90727016D01*
X113219500Y-90919871D01*
X110620500Y-90919871D01*
X110589955Y-90727016D01*
X110529617Y-90541313D01*
X110440971Y-90367336D01*
X110326201Y-90209368D01*
X110326198Y-90209365D01*
X110326196Y-90209362D01*
X110188137Y-90071303D01*
X110188134Y-90071301D01*
X110188132Y-90071299D01*
X110030164Y-89956529D01*
X109856187Y-89867883D01*
X109856184Y-89867882D01*
X109856182Y-89867881D01*
X109670487Y-89807546D01*
X109670491Y-89807546D01*
X109634588Y-89801859D01*
X109477629Y-89777000D01*
X109282371Y-89777000D01*
X109089516Y-89807545D01*
X109089510Y-89807546D01*
X108903817Y-89867881D01*
X108903811Y-89867884D01*
X108729832Y-89956531D01*
X108571865Y-90071301D01*
X108571862Y-90071303D01*
X108433803Y-90209362D01*
X108433801Y-90209365D01*
X108319031Y-90367332D01*
X108230384Y-90541311D01*
X108230381Y-90541317D01*
X108170046Y-90727010D01*
X108170045Y-90727015D01*
X108170045Y-90727016D01*
X108139500Y-90919871D01*
X105540500Y-90919871D01*
X105509955Y-90727016D01*
X105449617Y-90541313D01*
X105360971Y-90367336D01*
X105246201Y-90209368D01*
X105246198Y-90209365D01*
X105246196Y-90209362D01*
X105108137Y-90071303D01*
X105108134Y-90071301D01*
X105108132Y-90071299D01*
X104950164Y-89956529D01*
X104776187Y-89867883D01*
X104776184Y-89867882D01*
X104776182Y-89867881D01*
X104590487Y-89807546D01*
X104590491Y-89807546D01*
X104554588Y-89801859D01*
X104397629Y-89777000D01*
X104202371Y-89777000D01*
X104009516Y-89807545D01*
X104009510Y-89807546D01*
X103823817Y-89867881D01*
X103823811Y-89867884D01*
X103649832Y-89956531D01*
X103491865Y-90071301D01*
X103491862Y-90071303D01*
X103353803Y-90209362D01*
X103353801Y-90209365D01*
X103239031Y-90367332D01*
X103150384Y-90541311D01*
X103150381Y-90541317D01*
X103090046Y-90727010D01*
X103090045Y-90727015D01*
X103090045Y-90727016D01*
X103059500Y-90919871D01*
X100460500Y-90919871D01*
X100429955Y-90727016D01*
X100369617Y-90541313D01*
X100280971Y-90367336D01*
X100166201Y-90209368D01*
X100166198Y-90209365D01*
X100166196Y-90209362D01*
X100028137Y-90071303D01*
X100028134Y-90071301D01*
X100028132Y-90071299D01*
X99870164Y-89956529D01*
X99696187Y-89867883D01*
X99696184Y-89867882D01*
X99696182Y-89867881D01*
X99510487Y-89807546D01*
X99510491Y-89807546D01*
X99474588Y-89801859D01*
X99317629Y-89777000D01*
X99122371Y-89777000D01*
X98929516Y-89807545D01*
X98929510Y-89807546D01*
X98743817Y-89867881D01*
X98743811Y-89867884D01*
X98569832Y-89956531D01*
X98411865Y-90071301D01*
X98411862Y-90071303D01*
X98273803Y-90209362D01*
X98273801Y-90209365D01*
X98159031Y-90367332D01*
X98070384Y-90541311D01*
X98070381Y-90541317D01*
X98010046Y-90727010D01*
X98010045Y-90727015D01*
X98010045Y-90727016D01*
X97979500Y-90919871D01*
X95380500Y-90919871D01*
X95349955Y-90727016D01*
X95289617Y-90541313D01*
X95200971Y-90367336D01*
X95086201Y-90209368D01*
X95086198Y-90209365D01*
X95086196Y-90209362D01*
X94948137Y-90071303D01*
X94948134Y-90071301D01*
X94948132Y-90071299D01*
X94790164Y-89956529D01*
X94616187Y-89867883D01*
X94616184Y-89867882D01*
X94616182Y-89867881D01*
X94430487Y-89807546D01*
X94430491Y-89807546D01*
X94394588Y-89801859D01*
X94237629Y-89777000D01*
X94042371Y-89777000D01*
X93849516Y-89807545D01*
X93849510Y-89807546D01*
X93663817Y-89867881D01*
X93663811Y-89867884D01*
X93489832Y-89956531D01*
X93331865Y-90071301D01*
X93331862Y-90071303D01*
X93193803Y-90209362D01*
X93193801Y-90209365D01*
X93079031Y-90367332D01*
X92990384Y-90541311D01*
X92990381Y-90541317D01*
X92930046Y-90727010D01*
X92930045Y-90727015D01*
X92930045Y-90727016D01*
X92899500Y-90919871D01*
X61310891Y-90919871D01*
X61380556Y-90834986D01*
X61481886Y-90711514D01*
X61481891Y-90711508D01*
X61684291Y-90408594D01*
X61856034Y-90087286D01*
X61995454Y-89750698D01*
X61995455Y-89750694D01*
X62101217Y-89402043D01*
X62172288Y-89044738D01*
X62172291Y-89044718D01*
X62207999Y-88682168D01*
X62208000Y-88682152D01*
X62208000Y-88317847D01*
X62207999Y-88317831D01*
X62172291Y-87955281D01*
X62172288Y-87955261D01*
X62101217Y-87597956D01*
X61995455Y-87249305D01*
X61995454Y-87249301D01*
X61856034Y-86912713D01*
X61684291Y-86591405D01*
X61481884Y-86288481D01*
X61414139Y-86205933D01*
X61386385Y-86140586D01*
X61398367Y-86070608D01*
X61446280Y-86018216D01*
X61511538Y-86000000D01*
X172488462Y-86000000D01*
X172556583Y-86020002D01*
G37*
%TD.AperFunction*%
%TD*%
M02*
