M48
; DRILL file {KiCad 9.0.6} date 2026-01-14T11:08:58+0100
; FORMAT={-:-/ absolute / metric / decimal}
; #@! TF.CreationDate,2026-01-14T11:08:58+01:00
; #@! TF.GenerationSoftware,Kicad,Pcbnew,9.0.6
; #@! TF.FileFunction,MixedPlating,1,2
FMAT,2
METRIC
; #@! TA.AperFunction,Plated,PTH,ViaDrill
T1C0.500
; #@! TA.AperFunction,Plated,PTH,ComponentDrill
T2C0.500
; #@! TA.AperFunction,Plated,PTH,ComponentDrill
T3C1.000
; #@! TA.AperFunction,Plated,PTH,ComponentDrill
T4C1.400
; #@! TA.AperFunction,Plated,PTH,ComponentDrill
T5C3.200
%
G90
G05
T1
X57.545Y-94.482
X57.545Y-99.562
X57.545Y-104.642
X57.545Y-109.722
X57.545Y-114.802
X57.545Y-119.882
X57.545Y-124.962
X57.545Y-130.042
X57.545Y-135.122
X62.625Y-89.402
X62.625Y-94.482
X62.625Y-99.562
X62.625Y-104.642
X62.625Y-124.962
X64.0Y-87.0
X66.718Y-111.185
X67.705Y-89.402
X67.705Y-94.482
X67.705Y-99.562
X67.705Y-104.642
X67.705Y-130.042
X67.705Y-135.122
X69.005Y-143.24
X69.025Y-140.358
X72.785Y-89.402
X72.785Y-94.482
X72.785Y-99.562
X72.785Y-104.642
X72.785Y-114.802
X72.785Y-130.042
X72.785Y-135.122
X73.209Y-120.54
X75.0Y-87.0
X76.0Y-111.0
X77.865Y-89.402
X77.865Y-94.482
X77.865Y-99.562
X77.865Y-124.962
X77.865Y-135.122
X78.768Y-140.324
X82.0Y-111.0
X82.005Y-143.24
X82.945Y-89.402
X82.945Y-94.482
X82.945Y-114.802
X83.726Y-128.216
X84.017Y-140.461
X84.23Y-137.231
X84.367Y-131.948
X84.632Y-120.614
X85.243Y-110.825
X86.0Y-87.0
X88.025Y-89.402
X88.025Y-104.642
X88.025Y-114.802
X88.274Y-119.326
X90.0Y-111.0
X90.061Y-121.904
X93.0Y-121.0
X93.105Y-94.482
X93.105Y-99.562
X93.105Y-104.642
X93.105Y-114.802
X94.206Y-140.393
X96.0Y-111.0
X97.0Y-87.0
X97.0Y-130.0
X102.0Y-111.0
X102.005Y-143.24
X103.265Y-104.642
X103.265Y-114.802
X103.94Y-128.696
X105.0Y-121.0
X107.0Y-111.0
X108.0Y-87.0
X108.345Y-99.562
X108.345Y-104.642
X108.345Y-114.802
X109.806Y-127.187
X113.0Y-121.0
X113.425Y-99.562
X113.425Y-104.642
X113.425Y-114.802
X115.0Y-111.0
X116.839Y-129.554
X117.005Y-143.24
X118.0Y-87.0
X118.505Y-140.202
X121.0Y-111.0
X121.194Y-134.837
X123.0Y-121.0
X123.585Y-94.482
X123.585Y-99.562
X123.585Y-104.642
X123.585Y-114.802
X124.142Y-124.451
X126.0Y-111.0
X126.107Y-129.484
X126.237Y-135.009
X126.578Y-120.677
X128.665Y-99.562
X128.665Y-114.802
X129.151Y-124.348
X130.0Y-87.0
X130.956Y-129.438
X131.203Y-134.685
X132.0Y-111.0
X132.033Y-123.061
X133.165Y-126.338
X133.745Y-104.642
X134.023Y-122.77
X135.017Y-115.154
X135.944Y-124.074
X136.188Y-129.15
X136.211Y-134.89
X138.0Y-111.0
X138.681Y-127.091
X138.825Y-104.642
X138.825Y-114.802
X139.211Y-122.208
X141.334Y-124.621
X141.334Y-134.73
X142.0Y-111.0
X142.005Y-143.24
X142.112Y-130.362
X143.905Y-89.402
X143.905Y-94.482
X143.905Y-114.802
X144.0Y-87.0
X145.108Y-128.441
X146.595Y-124.759
X147.0Y-111.0
X147.768Y-123.368
X148.985Y-89.402
X148.985Y-94.482
X148.985Y-99.562
X152.953Y-122.871
X153.0Y-111.0
X154.065Y-89.402
X154.065Y-94.482
X154.065Y-99.562
X154.065Y-104.642
X154.065Y-114.802
X155.0Y-87.0
X156.727Y-115.413
X157.0Y-111.0
X159.005Y-143.24
X159.145Y-89.402
X159.145Y-94.482
X159.145Y-99.562
X159.145Y-104.642
X159.145Y-130.042
X164.0Y-87.0
X164.225Y-89.402
X164.225Y-94.482
X164.225Y-99.562
X164.225Y-104.642
X164.225Y-124.962
X164.225Y-135.122
X167.906Y-111.538
X168.42Y-117.147
X169.0Y-87.0
X169.305Y-89.402
X169.305Y-94.482
X169.305Y-99.562
X169.305Y-104.642
X169.305Y-130.042
X169.305Y-135.122
X171.005Y-143.24
X174.385Y-94.482
X174.385Y-99.562
X174.385Y-104.642
X174.385Y-119.882
X174.385Y-124.962
X177.0Y-94.0
X177.0Y-105.0
X177.0Y-115.0
X177.0Y-136.0
X178.0Y-125.0
T2
X56.1Y-88.5
X56.1Y-141.5
X56.803Y-86.803
X56.803Y-90.197
X56.803Y-139.803
X56.803Y-143.197
X58.5Y-86.1
X58.5Y-90.9
X58.5Y-139.1
X58.5Y-143.9
X60.197Y-86.803
X60.197Y-90.197
X60.197Y-139.803
X60.197Y-143.197
X60.9Y-88.5
X60.9Y-141.5
X173.1Y-88.5
X173.1Y-141.5
X173.803Y-86.803
X173.803Y-90.197
X173.803Y-139.803
X173.803Y-143.197
X175.5Y-86.1
X175.5Y-90.9
X175.5Y-139.1
X175.5Y-143.9
X177.197Y-86.803
X177.197Y-90.197
X177.197Y-139.803
X177.197Y-143.197
X177.9Y-88.5
X177.9Y-141.5
T3
X61.157Y-108.65
X61.157Y-111.19
X61.157Y-113.73
X61.157Y-116.27
X61.157Y-118.81
X61.157Y-121.35
X63.697Y-108.65
X63.697Y-111.19
X63.697Y-113.73
X63.697Y-116.27
X63.697Y-118.81
X63.697Y-121.35
X170.302Y-108.65
X170.302Y-111.19
X170.302Y-113.73
X170.302Y-116.27
X170.302Y-118.81
X170.302Y-121.35
X172.843Y-108.65
X172.843Y-111.19
X172.843Y-113.73
X172.843Y-116.27
X172.843Y-118.81
X172.843Y-121.35
T4
X66.28Y-138.222
X71.36Y-138.222
X76.44Y-138.222
X81.52Y-138.222
X86.6Y-138.222
X91.68Y-138.222
X94.14Y-91.777
X96.76Y-138.222
X99.22Y-91.777
X101.84Y-138.222
X104.3Y-91.777
X106.92Y-138.222
X109.38Y-91.777
X112.0Y-138.222
X114.46Y-91.777
X119.54Y-91.777
X122.0Y-138.222
X124.62Y-91.777
X127.08Y-138.222
X129.7Y-91.777
X132.16Y-138.222
X134.78Y-91.777
X137.24Y-138.222
X139.86Y-91.777
X142.32Y-138.222
X147.4Y-138.222
X152.48Y-138.222
X157.56Y-138.222
X162.64Y-138.222
X167.72Y-138.222
T5
X58.5Y-88.5
X58.5Y-141.5
X175.5Y-88.5
X175.5Y-141.5
M30
